<?xml version="1.0" standalone="no"?>
<!DOCTYPE svg PUBLIC "-//W3C//DTD SVG 1.1//EN" "http://www.w3.org/Graphics/SVG/1.1/DTD/svg11.dtd" >
<svg xmlns="http://www.w3.org/2000/svg">
<metadata>Generated by IcoMoon</metadata>
<defs>
<font id="icomoon" horiz-adv-x="1024">
<font-face units-per-em="1024" ascent="960" descent="-64" />
<missing-glyph horiz-adv-x="1024" />
<glyph unicode="&#x20;" horiz-adv-x="512" d="" />
<glyph unicode="&#xe900;" glyph-name="envelope" d="M21.424 769.688c140.54-119.022 387.144-328.419 459.624-393.708 9.73-8.812 20.166-13.292 31-13.292 10.812 0 21.229 4.438 30.938 13.208 72.542 65.354 319.146 274.771 459.69 393.793 8.749 7.396 10.080 20.396 3.002 29.437-16.378 20.894-40.794 32.874-66.963 32.874h-853.332c-26.166 0-50.584-11.98-66.958-32.876-7.084-9.040-5.75-22.040 3-29.436zM1011.629 705.199c-7.565 3.52-16.461 2.292-22.752-3.084-155.859-132.124-354.772-301.48-417.357-357.874-35.126-31.709-83.876-31.709-119.084 0.042-66.708 60.104-290.084 250-417.312 357.834-6.334 5.376-15.25 6.562-22.75 3.084-7.54-3.502-12.374-11.044-12.374-19.356v-536.5c0-47.066 38.27-85.331 85.334-85.331h853.335c47.059 0 85.331 38.266 85.331 85.331v536.5c0 8.312-4.832 15.874-12.371 19.354z" />
<glyph unicode="&#xe901;" glyph-name="search" d="M950.625 54.625l-232.289 232.294c50.929 61.066 81.664 139.53 81.664 225.080 0 194.096-157.906 352-352 352-194.096 0-352-157.904-352-352 0-194.094 157.904-352 352-352 85.55 0 164.014 30.735 225.080 81.664l232.294-232.294c6.252-6.252 14.444-9.38 22.625-9.38s16.374 3.128 22.625 9.38c12.503 12.503 12.503 32.758 0 45.256zM160 512c0 158.8 129.184 288 288 288s288-129.2 288-288c0-158.802-129.183-288-288-288s-288 129.198-288 288z" />
<glyph unicode="&#xe902;" glyph-name="pin-400" horiz-adv-x="902" d="M451.094 744.082c-92.345 0-167.475-83.653-167.475-186.475s75.13-186.473 167.475-186.473c92.345 0 167.473 83.651 167.473 186.473s-75.127 186.475-167.473 186.475zM451.094 449.648c-53.465 0-96.961 48.43-96.961 107.959s43.496 107.959 96.961 107.959c53.463 0 96.958-48.43 96.958-107.959s-43.496-107.959-96.958-107.959zM451.011 960c-199.273 0-361.392-180.514-361.392-402.393v-11.123c0-112.216 57.78-242.981 171.74-388.657 82.612-105.606 164.069-179.244 167.495-182.328l22.157-19.936 22.16 19.934c3.426 3.084 84.885 76.722 167.495 182.328 113.959 145.679 171.739 276.443 171.739 388.657v11.123c0 221.881-162.119 402.395-361.394 402.395zM741.89 546.482c0-189.637-219.448-419.196-290.879-488.882-71.448 69.708-290.877 299.259-290.877 488.882v11.123c0 178.587 130.489 323.879 290.877 323.879 160.39 0 290.879-145.292 290.879-323.879v-11.123z" />
<glyph unicode="&#xe903;" glyph-name="address-book-1" d="M372.339 448.001c128.532 0 232.726 104.196 232.726 232.728s-104.193 232.728-232.726 232.728c-128.532 0-232.728-104.196-232.728-232.728s104.196-232.728 232.728-232.728zM744.727 122.18c0-76.794-62.839-139.634-139.634-139.634h-465.457c-76.796 0-139.636 62.839-139.636 139.634 0 128.455 104.262 232.727 232.728 232.727h279.272c128.466 0 232.727-104.272 232.727-232.727zM884.383 680.728c0-128.454-104.26-232.728-232.727-232.728-15.815 0-31.647 1.408-46.546 5.114 57.719 58.66 93.093 139.182 93.093 227.614s-35.374 168.954-93.093 227.614c14.899 3.704 30.731 5.114 46.546 5.114 128.466-0.002 232.727-104.274 232.727-232.728zM1023.994 122.186c0-76.8-62.839-139.639-139.634-139.639h-93.093c29.321 38.639 46.546 87.046 46.546 139.639 0 91.227-37.7 173.614-98.202 232.727h51.655c128.466 0 232.727-104.277 232.727-232.727z" />
<glyph unicode="&#xe904;" glyph-name="advice1" d="M145.667-39.152c0.972-1.931 2.322-3.649 3.972-5.048 1.649-1.4 3.563-2.452 5.628-3.097 1.531-0.463 3.121-0.699 4.72-0.703 2.717-0.007 5.39 0.687 7.76 2.014l144 80.001c3.607 1.999 6.301 5.312 7.525 9.251 1.222 3.937 0.876 8.196-0.964 11.884l-17.025 34.032c46.105 24.103 99.238 31.153 150.032 19.904l29.105-6.4c37.86-8.414 77.060-8.821 115.083-1.19 38.026 7.629 74.035 23.127 105.717 45.494l204.016 144.001c2.804 1.983 4.896 4.818 5.964 8.083 1.070 3.264 1.059 6.787-0.028 10.046l-4.56 13.679c-2.991 8.994-7.88 17.24-14.334 24.181-6.456 6.94-14.329 12.41-23.084 16.041s-18.188 5.337-27.66 5.003c-9.474-0.334-18.764-2.699-27.242-6.937l-14.304-7.186-7.599 3.792c-12.964 6.25-27.125 9.627-41.514 9.903s-28.667-2.555-41.862-8.301l-24.768 6.192c-12.429 3.014-25.37 3.264-37.907 0.733-12.537-2.534-24.366-7.786-34.652-15.39l-41.024-30.831h-70.896l-22.976 11.504c-30.614 15.307-64.733 22.249-98.894 20.122-34.163-2.127-67.155-13.247-95.635-32.233l-50.303-33.601-23.201-11.599-18.432 36.8c-0.966 1.931-2.313 3.648-3.96 5.044-1.645 1.398-3.559 2.447-5.621 3.086-2.064 0.637-4.234 0.851-6.382 0.629s-4.229-0.879-6.116-1.926l-144-80.001c-3.606-1.999-6.301-5.312-7.524-9.251-1.222-3.937-0.877-8.196 0.964-11.885l127.984-255.839zM770.77 332.048l-72.656-62.287c-4.401 10.826-11.117 20.556-19.678 28.511l29.119 23.296c8.836 6.863 19.244 11.414 30.28 13.247s22.357 0.888 32.936-2.751v-0.016zM630.883 325.152c5.994 4.357 12.809 7.454 20.033 9.105 7.223 1.651 14.707 1.818 21.998 0.496l-24-19.2c-8.015 2.814-16.433 4.315-24.927 4.447l6.896 5.152zM247.139 257.6c0.595 0.302 1.172 0.639 1.728 1.008l51.2 34.080c23.762 15.842 51.287 25.129 79.789 26.917 28.503 1.79 56.973-3.979 82.531-16.725l26.384-13.199c2.24-1.118 4.712-1.693 7.216-1.681h128c9.924-0.012 19.603-3.093 27.706-8.822s14.237-13.826 17.558-23.178h-141.264v-32h160c3.822-0.009 7.519 1.361 10.417 3.856l110.527 94.752 19.617 9.792c4.382 2.189 9.181 3.409 14.075 3.582 4.894 0.171 9.769-0.71 14.292-2.585 4.525-1.875 8.593-4.702 11.93-8.284 3.339-3.584 5.867-7.842 7.415-12.489l0.784-2.399-194.304-137.168c-28.036-19.784-59.9-33.494-93.546-40.243-33.645-6.751-68.329-6.395-101.83 1.043l-29.103 6.479c-57.946 12.821-118.554 4.836-171.2-22.56l-64 127.873 24.080 11.951zM169.139 281.824l113.695-227.36-115.999-64.448-113.696 227.439 116 64.369zM992 944h-640c-4.244 0-8.314-1.686-11.313-4.686-3.001-3.001-4.687-7.070-4.687-11.314v-384c0-4.244 1.686-8.314 4.687-11.313 3-3.001 7.069-4.687 11.313-4.687h246.72l59.392-104c1.4-2.447 3.422-4.481 5.86-5.895 2.44-1.414 5.208-2.159 8.028-2.159s5.588 0.745 8.028 2.159c2.438 1.414 4.46 3.448 5.86 5.895l59.392 104h246.72c4.244 0 8.314 1.686 11.313 4.687 3.001 3 4.687 7.069 4.687 11.313v384c0 4.243-1.686 8.313-4.687 11.314s-7.069 4.686-11.313 4.686zM975.999 560.001h-239.999c-2.814 0.005-5.579-0.733-8.017-2.136-2.44-1.405-4.463-3.427-5.87-5.865l-50.112-87.743-50.112 87.743c-1.407 2.438-3.432 4.46-5.87 5.865-2.438 1.404-5.203 2.142-8.017 2.136h-239.999v351.999h607.998v-351.999zM527.999 608c25.318 0 50.065 7.507 71.113 21.571 21.050 14.066 37.455 34.057 47.145 57.445 9.687 23.39 12.223 49.126 7.283 73.956-4.938 24.83-17.129 47.637-35.030 65.538-17.902 17.901-40.709 30.092-65.538 35.031s-50.566 2.404-73.956-7.284-43.381-26.094-57.445-47.144c-14.064-21.050-21.573-45.797-21.573-71.113 0.039-33.937 13.536-66.472 37.533-90.467 23.997-23.997 56.532-37.494 90.467-37.533zM527.999 832c18.988 0 37.549-5.63 53.336-16.179s28.091-25.542 35.356-43.084c7.267-17.54 9.168-36.843 5.464-55.465s-12.848-35.727-26.274-49.154c-13.425-13.425-30.531-22.569-49.152-26.273-18.623-3.704-37.925-1.804-55.467 5.463s-32.535 19.571-43.084 35.358c-10.547 15.787-16.177 34.348-16.177 53.335 0.025 25.453 10.146 49.856 28.144 67.854 17.999 17.998 42.402 28.12 67.854 28.146zM512.004 688.001h0.897c2.246 0.125 4.439 0.724 6.437 1.755s3.759 2.472 5.162 4.228l64 79.999-24.991 20.001-52.801-66.047-19.359 19.359-22.625-22.623 32-32c2.994-2.987 7.051-4.668 11.28-4.672zM719.999 864h128v-32h-128v32zM880.001 864h64v-32h-64v32zM688.001 800h256v-32h-256v32zM688.001 736h256v-32h-256v32zM688.001 672h256v-32h-256v32z" />
<glyph unicode="&#xe905;" glyph-name="appointment" d="M927.599 884.704h-84.33c-7.528 34.635-37.646 60.235-73.788 60.235-36.14 0-66.258-25.6-73.788-60.235h-367.436c-7.528 34.635-37.646 60.235-73.788 60.235-36.14 0-67.764-25.6-73.788-60.235h-84.329c-45.177 0-81.318-36.141-81.318-81.318v-627.952c0-45.178 36.141-81.318 81.318-81.318h492.423c25.6-82.824 102.4-143.060 192.754-143.060 97.882 0 179.2 69.272 197.27 161.13 18.070 15.058 30.118 39.154 30.118 63.248v627.952c0 45.176-36.142 81.318-81.318 81.318zM769.481 914.822c25.6 0 45.176-19.576 45.176-45.176s-19.576-45.176-45.176-45.176c-25.6 0-45.176 19.576-45.176 45.176s21.082 45.176 45.176 45.176zM254.469 914.822c25.6 0 45.178-19.576 45.178-45.176s-19.578-45.176-45.178-45.176c-25.6 0-45.176 19.576-45.176 45.176s19.576 45.176 45.176 45.176zM96.352 854.586h84.329c7.53-34.635 37.648-60.235 73.788-60.235 36.142 0 66.26 25.6 73.788 60.235h368.942c7.53-34.635 37.648-60.235 73.788-60.235 36.142 0 66.258 25.6 73.788 60.235h82.824c28.612 0 51.2-22.588 51.2-51.2v-81.318h-933.647v81.318c0 28.612 22.588 51.2 51.2 51.2zM96.352 122.728c-28.612 0-51.2 24.094-51.2 52.706v515.012h933.647v-495.436c-19.576 90.352-100.894 158.118-197.27 158.118-111.436 0-201.788-90.354-201.788-201.788 0-10.542 1.506-19.578 3.010-30.118h-486.399v1.506zM781.529-18.826c-94.872 0-171.672 76.8-171.672 171.67 0 94.872 76.8 171.672 171.672 171.672 94.87 0 171.67-76.8 171.67-171.672 0-94.87-76.8-171.67-171.67-171.67zM371.927 639.244h-81.316c-9.036 0-15.060-6.022-15.060-15.058v-81.318c0-9.036 6.024-15.058 15.060-15.058h81.316c9.036 0 15.060 6.022 15.060 15.058v81.318c0 7.53-6.024 15.058-15.060 15.058zM356.869 557.926h-51.2v51.2h51.2v-51.2zM548.135 639.244h-81.318c-9.034 0-15.058-6.022-15.058-15.058v-81.318c0-9.036 6.024-15.058 15.058-15.058h81.318c9.036 0 15.060 6.022 15.060 15.058v81.318c0 7.53-6.024 15.058-15.060 15.058zM533.077 557.926h-51.2v51.2h51.2v-51.2zM642.989 527.81h81.318c9.036 0 15.060 6.022 15.060 15.058v81.318c0 9.036-6.024 15.058-15.060 15.058h-81.318c-9.034 0-15.058-6.022-15.058-15.058v-81.318c0-9.036 7.53-15.058 15.058-15.058zM658.049 609.126h51.2v-51.2h-51.2v51.2zM819.196 527.812h81.318c9.036 0 15.058 6.022 15.058 15.058v81.318c0 9.034-6.022 15.058-15.058 15.058h-81.318c-9.034 0-15.058-6.024-15.058-15.058v-81.318c0-9.036 7.528-15.058 15.058-15.058zM834.256 609.128h51.2v-51.2h-51.2v51.2zM195.791 479.624h-81.318c-9.035 0-15.059-6.024-15.059-15.058v-81.318c0-9.036 6.024-15.060 15.059-15.060h81.318c9.034 0 15.058 6.024 15.058 15.060v81.318c0 7.528-6.024 15.058-15.058 15.058zM180.731 396.8h-51.199v51.2h51.199v-51.2zM371.927 479.624h-81.316c-9.036 0-15.060-6.024-15.060-15.058v-81.318c0-9.036 6.024-15.060 15.060-15.060h81.316c9.036 0 15.060 6.024 15.060 15.060v81.318c0 7.528-6.024 15.058-15.060 15.058zM356.869 396.8h-51.2v51.2h51.2v-51.2zM642.989 366.68h81.318c9.036 0 15.060 6.024 15.060 15.058v81.318c0 9.036-6.024 15.058-15.060 15.058h-81.318c-9.034 0-15.058-6.022-15.058-15.058v-81.318c0-7.528 7.53-15.058 15.058-15.058zM658.049 449.504h51.2v-51.2h-51.2v51.2zM195.791 318.494h-81.318c-9.035 0-15.059-6.022-15.059-15.058v-81.318c0-9.036 6.024-15.058 15.059-15.058h81.318c9.034 0 15.058 6.022 15.058 15.058v81.318c0 9.036-6.024 15.058-15.058 15.058zM180.731 237.176h-51.199v51.202h51.199v-51.202zM371.927 318.494h-81.316c-9.036 0-15.060-6.022-15.060-15.058v-81.318c0-9.036 6.024-15.058 15.060-15.058h81.316c9.036 0 15.060 6.022 15.060 15.058v81.318c0 9.036-6.024 15.058-15.060 15.058zM356.869 237.176h-51.2v51.202h51.2v-51.202zM548.135 479.624h-81.318c-9.034 0-15.058-6.024-15.058-15.058v-81.318c0-9.036 6.024-15.060 15.058-15.060h81.318c9.036 0 15.060 6.024 15.060 15.060v81.318c0 7.528-6.024 15.058-15.060 15.058zM533.077 396.8h-51.2v51.2h51.2v-51.2zM871.887 237.176l-132.518-135.53-46.682 66.26c-4.518 6.022-15.060 7.528-21.082 3.012-6.024-4.518-7.53-13.554-3.012-21.084l57.224-79.81c3.010-3.012 6.022-6.024 10.54-6.024s9.036 1.506 12.048 4.518l146.070 147.576c6.024 6.024 6.024 15.058 0 21.082s-16.564 6.024-22.588 0z" />
<glyph unicode="&#xe906;" glyph-name="bubble-chat-1" d="M606.784 837.214c-63.59 39.22-138.944 60.786-216.784 60.786-211.892 0-390-157.866-390-360 0-70.87 22.016-138.808 63.836-197.482l-58.42-183.411c-6.172-19.373 8.34-39.104 28.59-39.104 4.63 0 9.29 1.069 13.59 3.258l177.664 90.33c7.194-3.098 14.478-5.978 21.836-8.653-41.133 64.205-63.096 137.902-63.096 215.062 0 229.794 193.356 406.456 422.784 419.214zM960.166 220.518c41.818 58.675 63.834 126.612 63.834 197.482 0 202.208-178.182 360-390 360-211.892 0-390-157.866-390-360 0-202.211 178.184-360.003 390-360.003 56.835 0 113.462 11.584 164.733 33.6l177.67-90.336c10.784-5.485 23.808-3.955 33.024 3.878s12.832 20.442 9.158 31.968l-58.419 183.411zM512 388c-16.568 0-30 13.432-30 30s13.432 30 30 30c16.568 0 30-13.432 30-30s-13.432-30-30-30zM632 388c-16.568 0-30 13.432-30 30s13.432 30 30 30c16.57 0 30.003-13.432 30.003-30s-13.434-30-30.003-30zM752 388c-16.57 0-30.003 13.432-30.003 30s13.434 30 30.003 30c16.57 0 30.003-13.432 30.003-30s-13.434-30-30.003-30z" />
<glyph unicode="&#xe907;" glyph-name="calculator-1" d="M390 224c0 179.315 137.114 327.19 312.001 344.325v361.675c0 16.568-13.434 30-30.001 30h-642c-16.568 0-30-13.432-30-30v-898c0-16.567 13.432-30.001 30-30.001h440.835c-50.427 60.126-80.835 137.572-80.835 222.001zM130 640v160c0 16.568 13.432 30 30 30h384c16.567 0 30.001-13.432 30.001-30v-160c0-16.567-13.434-30.001-30.001-30.001h-384c-16.568 0-30 13.434-30 30.001zM208 161.999h-32c-16.568 0-30 13.434-30 30.001s13.432 30.001 30 30.001h32c16.568 0 30-13.434 30-30.001s-13.432-30.001-30-30.001zM208 321.999h-32c-16.568 0-30 13.434-30 30.001s13.432 30.001 30 30.001h32c16.568 0 30-13.434 30-30.001s-13.432-30.001-30-30.001zM208 481.999h-32c-16.568 0-30 13.434-30 30.001s13.432 30.001 30 30.001h32c16.568 0 30-13.434 30-30.001s-13.432-30.001-30-30.001zM368.001 481.999h-32.002c-16.567 0-29.998 13.434-29.998 30.001s13.431 30.001 29.998 30.001h32.002c16.567 0 29.998-13.434 29.998-30.001s-13.431-30.001-29.998-30.001zM727.52 509.864c-153.963-4.535-277.521-131.167-277.521-285.864 0-157.676 128.356-288 286.001-288 157.701 0 288 130.299 288 288 0 161.685-136.414 290.779-296.48 285.864zM766.040 94.12v-6.271c0-16.567-13.431-29.998-30.001-29.998-16.567 0-29.998 13.431-29.998 29.998v2.879c-13.822 2.423-26.451 7.595-42.406 18.035-13.865 9.070-17.752 27.663-8.682 41.526 9.072 13.868 27.665 17.754 41.528 8.682 14.626-9.567 19.363-10.313 39.356-10.172 19.3 0.127 26.99 15.277 28.492 24.208 1.348 8.016-0.166 18.676-15.033 23.93-24.91 8.806-50.452 18.91-68.545 33.102-41.201 32.317-28.765 106.128 25.293 125.769v4.345c0 16.567 13.431 29.998 29.998 29.998 16.569 0 30.001-13.431 30.001-29.998v-1.663c14.782-4.172 26.685-11.717 34.865-20.034 11.618-11.815 11.457-30.808-0.356-42.425-11.808-11.61-30.786-11.457-42.403 0.334-1.673 1.636-10.915 9.34-30.925 3.316-7.987-2.406-10.133-10.691-10.601-13.171-0.975-5.181 0.414-8.672 1.158-9.255 11.315-8.877 32.39-16.984 51.512-23.745 79.067-27.95 69.437-133.113-3.252-159.39zM190 770h323.999v-99.999h-323.999v99.999zM112.381 560.394h305.952l-62.44-262.244 43.708-237.268h-287.22v499.512z" />
<glyph unicode="&#xe908;" glyph-name="calendar-1" d="M29.955 178.015h784.037c7.029 0 13.824 2.458 19.215 6.941 7.534 6.305 179.317 154.085 189.791 473.079h-842.040c-10.435-289.561-168.638-425.663-170.282-427.021-9.638-8.141-13.185-21.445-8.848-33.28 4.306-11.813 15.529-19.719 28.127-19.719zM994.033 838.033h-150.001v30.002c0 16.801-13.202 30.001-30.003 30.001s-30.003-13.2-30.003-30.001v-30.002h-152.005v30.002c0 16.801-13.2 30.001-30.001 30.001s-30.002-13.2-30.002-30.001v-30.002h-150.006v30.002c0 16.801-13.201 30.001-30.002 30.001s-30.001-13.2-30.001-30.001v-30.002h-150.006c-16.801 0-30.002-13.2-30.002-30.001v-90.004h842.037v90.004c0 16.801-13.202 30.001-30.003 30.001zM871.775 138.935c-16.289-13.568-36.74-20.955-57.746-20.955h-632.029v-90.002c0-16.581 13.419-30.003 30.002-30.003h782.032c16.589 0 30.003 13.422 30.003 30.003v336.309c-57.841-141.91-138.555-213.882-152.261-225.351z" />
<glyph unicode="&#xe909;" glyph-name="Calender-02" d="M921.6 857.6h-51.2v51.2c0 30.72-20.48 51.2-51.2 51.2s-51.2-20.48-51.2-51.2v-51.2h-512v51.2c0 30.72-20.48 51.2-51.2 51.2s-51.2-20.48-51.2-51.2v-51.2h-102.4c-25.6 0-51.2-20.48-51.2-51.2v-716.8c0-30.72 25.6-51.2 51.2-51.2h312.32c-35.84 61.44-56.32 133.12-56.32 204.8 0 225.28 184.32 409.6 409.6 409.6 97.28 0 184.32-35.84 256-92.16v245.76c0 25.6-25.6 51.2-51.2 51.2zM716.8 550.4c-168.96 0-307.2-138.24-307.2-307.2s138.24-307.2 307.2-307.2c168.96 0 307.2 138.24 307.2 307.2s-138.24 307.2-307.2 307.2zM819.2 192h-102.4c-30.72 0-51.2 20.48-51.2 51.2v153.6c0 30.72 20.48 51.2 51.2 51.2s51.2-20.48 51.2-51.2v-102.4h51.2c30.72 0 51.2-20.48 51.2-51.2s-20.48-51.2-51.2-51.2z" />
<glyph unicode="&#xe90a;" glyph-name="career-1" d="M942.752 694.528c10.815-15.52 17.248-34.272 17.248-54.528v-512c0-52.799-43.201-96-96-96h-704c-52.8 0-96 43.201-96 96v512c0 20.256 6.432 39.008 17.248 54.528l129.152-203.776c17.856-26.754 47.712-42.752 79.872-42.752h99.649c13.246-37.153 48.447-64 90.112-64h64c41.662 0 76.863 26.847 90.112 64h99.647c32.16 0 62.015 15.998 80.288 43.36l128.735 203.136-0.063 0.032zM480 512c-17.631 0-32-14.369-32-32s14.369-32 32-32h64c17.631 0 32 14.369 32 32s-14.369 32-32 32h-64zM133.408 731.744c8.512 2.496 17.312 4.256 26.592 4.256h160v32c0 52.8 43.201 96 96 96h192c52.799 0 96-43.2 96-96v-32h160c9.279 0 18.080-1.76 26.591-4.256l-130.208-205.504c-5.951-8.927-15.902-14.24-26.624-14.24h-99.647c-13.249 37.153-48.447 64-90.112 64h-64c-41.665 0-76.863-26.847-90.112-64h-99.648c-10.72 0-20.672 5.343-26.208 13.631l-130.624 206.113zM384 736h256v32c0 17.6-14.399 32-32 32h-192c-17.601 0-32-14.4-32-32v-32z" />
<glyph unicode="&#xe90b;" glyph-name="clock-1" d="M512 960c-282.328 0-512-229.672-512-512 0-282.331 229.672-512 512-512 282.331 0 512 229.669 512 512 0 282.328-229.669 512-512 512zM755.5 183.172c-8.324-8.324-19.244-12.507-30.164-12.507-10.922 0-21.851 4.184-30.164 12.507l-213.336 213.328c-8.023 7.976-12.5 18.82-12.5 30.164v277.336c0 23.594 19.109 42.664 42.664 42.664s42.664-19.071 42.664-42.664v-259.672l200.836-200.828c16.677-16.684 16.677-43.652 0-60.328z" />
<glyph unicode="&#xe90c;" glyph-name="collaboration-1" d="M1013.192 258.425l-97.024 97.029-200.709-200.709c-35.831-35.831-80.798-59.187-129.643-67.933l127.884-127.879c11.711-11.72 30.711-11.72 42.422 0l257.071 257.061c11.72 11.72 11.72 30.72 0 42.431zM876.665 400.784c33.82 33.811 33.829 88.837 0.047 122.672-0.037 0.039-0.079 0.078-0.116 0.117-8.36 8.352-18.125 14.789-28.76 19.094 9.221 23.321 11.166 62.758-19.372 93.305-0.079 0.078-0.158 0.164-0.242 0.242-8.322 8.266-18.022 14.641-28.588 18.922 9.221 23.304 11.171 62.75-19.349 93.281-0.023 0.023-0.042 0.039-0.056 0.054-8.369 8.367-18.139 14.821-28.788 19.125 9.216 23.32 11.162 62.766-19.377 93.312-0.009 0-0.009 0.008-0.014 0.008-0.009 0.008-0.019 0.016-0.023 0.023-33.839 33.836-88.883 33.836-122.722 0l-56.883-56.875 29.086-29.086c48.472-48.469 48.472-127.328 0.009-175.797-16.314-16.305-36.352-27.508-58.196-32.844-5.227-21.297-16.133-41.485-32.749-58.094-16.291-16.288-36.297-27.482-58.117-32.83-5.336-21.811-16.539-41.826-32.82-58.107-16.289-16.291-36.297-27.485-58.117-32.829-5.336-21.811-16.539-41.826-32.821-58.117-23.477-23.468-54.695-36.408-87.898-36.408s-64.422 12.93-87.899 36.417l-29.086 29.086-97.024-97.033c-11.719-11.72-11.719-30.711 0-42.431l257.063-257.061c11.719-11.72 30.711-11.711 42.43 0l184.014 184.008h51.847c49.45 0 95.944 19.265 130.914 54.225l203.608 203.618zM175.313 368.78c25.109-25.116 65.828-25.116 90.938 0 25.117 25.111 25.117 65.825 0 90.941 25.117-25.116 65.828-25.116 90.945 0 25.109 25.107 25.109 65.827 0 90.937 25.109-25.109 65.828-25.109 90.938 0 25.108 25.109 25.108 65.828 0 90.938 25.108-25.109 65.83-25.109 90.937 0 25.116 25.117 25.116 65.828 0 90.945l-128.218 128.219c-25.109 25.109-65.828 25.109-90.938 0s-25.109-65.828 0-90.938l16.062-16.070c-25.109 25.117-65.828 25.117-90.937 0-25.109-25.109-25.109-65.828 0-90.938l32.133-32.133c-25.109 25.109-65.828 25.109-90.938 0-25.117-25.109-25.117-65.828 0-90.938l32.133-32.141c-25.117 25.117-65.828 25.117-90.946 0-25.109-25.108-25.109-65.821 0-90.937l47.891-47.886zM566.886 903.361c4.436 4.437 9.132 8.515 14.015 12.305l-17.548 17.547c-9.123 9.133-23.087 11.391-34.625 5.625l-74.047-37.024 55.326-55.336 56.879 56.883z" />
<glyph unicode="&#xe90d;" glyph-name="send" d="M732.525 668.525l-337.922-234.616-353.451 117.831c-24.671 8.241-41.293 31.388-41.151 57.393 0.144 26.005 16.956 49.010 41.723 56.963l903.656 291.010c21.477 6.905 45.056 1.238 61.013-14.718 15.952-15.956 21.624-39.531 14.714-61.013l-291.007-903.654c-7.952-24.767-30.96-41.579-56.966-41.721s-49.152 16.477-57.393 41.151l-118.401 355.163 235.186 336.21z" />
<glyph unicode="&#xe90e;" glyph-name="long-icon-left" horiz-adv-x="1975" d="M22.626 536.32c0.023 0.023 0.042 0.050 0.069 0.073l403.087 401.143c30.198 30.051 79.040 29.939 109.099-0.262 30.055-30.198 29.94-79.041-0.258-109.096l-270.632-269.321h1633.723c42.606 0 77.144-34.537 77.144-77.143s-34.538-77.143-77.144-77.143h-1633.719l270.625-269.323c30.198-30.054 30.313-78.899 0.258-109.093-30.059-30.208-78.906-30.31-109.099-0.263l-403.087 401.143c-0.023 0.023-0.042 0.050-0.069 0.073-30.213 30.155-30.116 79.157 0.004 109.211z" />
<glyph unicode="&#xe90f;" glyph-name="glove1" d="M279.462 448.001c0 54.61 2.961 108.066 8.659 159.099h-262.829c-16.503-50.699-25.092-104.238-25.092-159.099 0-41.954 5.032-83.129 14.769-122.861h269.593c-3.369 39.9-5.1 81.044-5.1 122.861zM290.998 265.16h-257.323c25.351-66.447 64.657-127.401 116.441-179.2 68.307-68.332 152.536-114.934 244.305-136.422-19.93 27.643-38.027 62.715-53.726 104.719-22.67 60.652-39.479 132.588-49.698 210.903zM727.793 667.081h247.142c-24.837 52.417-58.767 100.729-100.987 142.961-68.306 68.332-152.535 114.934-244.306 136.419 19.932-27.641 38.031-62.711 53.729-104.716 19.123-51.169 34.074-110.377 44.421-174.664zM296.272 667.081c10.346 64.287 25.295 123.495 44.423 174.664 15.699 42.002 33.795 77.075 53.726 104.716-91.77-21.485-175.996-68.088-244.303-136.419-42.22-42.232-76.151-90.544-100.987-142.961h247.141zM733.066 265.16c-10.22-78.316-27.028-150.252-49.7-210.903-15.698-42.004-33.797-77.076-53.724-104.719 91.771 21.489 175.995 68.091 244.301 136.422 51.789 51.799 91.090 112.753 116.444 179.2h-257.321zM998.774 607.1h-262.835c5.704-51.035 8.663-104.492 8.663-159.099 0-41.816-1.731-82.96-5.1-122.861h269.588c9.738 39.731 14.771 80.906 14.771 122.861 0 54.862-8.586 108.4-25.088 159.099zM672.594 265.16h-321.122c9.677-70.671 25.012-135.342 45.407-189.906 32.591-87.194 75.639-139.254 115.152-139.254 39.516 0 82.565 52.060 115.154 139.254 20.398 54.564 35.732 119.235 45.409 189.906zM357.022 667.081h310.022c-9.61 56.575-23.004 108.574-39.859 153.665-32.589 87.196-75.638 139.254-115.154 139.254s-82.561-52.059-115.154-139.254c-16.852-45.091-30.248-97.090-39.855-153.665zM675.599 607.1h-327.138c-5.93-50.745-9.019-104.246-9.019-159.099 0-41.954 1.813-83.114 5.312-122.861h334.552c3.502 39.747 5.315 80.906 5.315 122.861 0 54.854-3.087 108.354-9.021 159.099z" />
<glyph unicode="&#xe910;" glyph-name="handcuffs-1" d="M383.159 919.471c-53.359-0.040-105.259-17.43-147.87-49.548-42.609-32.118-73.62-77.221-88.353-128.505s-12.389-105.971 6.678-155.806c19.067-49.837 53.823-92.122 99.025-120.476v-79.147h261.054v79.179c45.203 28.354 79.959 70.641 99.027 120.478 19.066 49.839 21.408 104.525 6.673 155.81s-45.747 96.389-88.361 128.505c-42.613 32.116-94.513 49.504-147.874 49.54v-0.031zM451.778 425.579h-70.263v31.334h70.263v-31.334zM383.159 507.046c-32.926-0.009-65.114 9.745-92.497 28.030-27.381 18.285-48.725 44.277-61.333 74.694-12.609 30.415-15.916 63.887-9.501 96.181s22.261 61.962 45.536 85.25c23.277 23.288 52.934 39.152 85.225 45.584 32.292 6.433 65.764 3.145 96.188-9.446s56.429-33.921 74.729-61.293c18.3-27.372 28.073-59.556 28.081-92.479 0.004-44.145-17.525-86.483-48.736-117.705-31.211-31.219-73.545-48.762-117.69-48.77v-0.047zM462.5 239.43l11.339 24.145 165.489-77.715-11.339-24.147-165.489 77.717zM291.708 354.703h182.863v-26.679h-182.863v26.679zM504.762 185.504l-20.070-42.927c-11.091-23.586-28.655-43.537-50.643-57.532s-47.497-21.457-73.562-21.523h-44.211c-17.035 0-33.374 6.769-45.419 18.814-12.047 12.047-18.814 28.384-18.814 45.421 0 17.035 6.767 33.374 18.814 45.419 12.045 12.047 28.384 18.814 45.419 18.814 27.104 0.030 53.088 10.81 72.252 29.973 19.166 19.166 29.943 45.15 29.973 72.252v2.445h-70.626v-2.445c-0.011-8.375-3.345-16.407-9.267-22.33-5.924-5.924-13.954-9.257-22.332-9.269-35.767 0-70.069-14.208-95.359-39.499s-39.499-59.593-39.499-95.36c0-35.767 14.208-70.069 39.499-95.36s59.592-39.499 95.359-39.499h44.211c39.49 0.092 78.144 11.398 111.46 32.602 33.314 21.203 59.923 51.433 76.727 87.17l20.023 42.848-63.936 29.986zM796.45 736.625c-46.276 21.717-98.195 28.385-148.457 19.067 7.825-25.386 11.94-51.769 12.22-78.333 30.321 5.988 61.711 3.426 90.66-7.403 28.947-10.829 54.313-29.498 73.259-53.916 18.948-24.418 30.729-53.626 34.027-84.356 3.3-30.731-2.014-61.773-15.347-89.658-13.333-27.883-34.159-51.507-60.147-68.235-25.99-16.725-56.122-25.892-87.023-26.477-30.901-0.582-61.357 7.441-87.959 23.174s-48.305 38.556-62.682 65.916v-81.653h-39.087v-57.967h-27.872l210.091-98.513 33.604 71.488c52.998 6.447 102.46 29.965 140.915 67.002 38.455 37.035 63.817 85.577 72.254 138.295 8.435 52.719-0.51 106.752-25.487 153.937-24.977 47.187-64.629 84.966-112.969 107.631zM650.735 260.358l-63.825 29.423 13.129 28.45 63.904-29.359-13.207-28.514z" />
<glyph unicode="&#xe911;" glyph-name="hand-shake-1" d="M1024 726.35v-309.975c0 0-66.343-13.070-80.009-14.791-13.623-1.714-56.437-15.538-87.466 14.285-47.852 45.863-217.862 214.936-217.862 214.936s-29.315 28.764-76.382 3.906c-43.207-22.772-107.254-56.146-134.005-69.14-50.571-26.919-92.486 15.788-92.486 48.318 0 25.233 15.745 42.359 38.253 54.954 61 36.979 189.569 109.145 243.118 137.598 32.549 17.312 56.001 18.795 100.688-18.851 55.036-46.286 104.016-88.479 104.016-88.479s15.974-13.332 41.452-7.963c62.562 13.228 160.684 35.203 160.684 35.203zM347.306 201.126c8.233 21.154 5.48 44.812-10.303 61.043-14.184 14.518-34.892 18.346-54.639 13.82 5.523 19.585 2.474 40.43-11.786 55.14-14.227 14.481-34.896 18.385-54.641 13.818 5.482 19.556 2.441 40.399-11.828 55.067-22.343 22.917-60.989 21.932-86.377-2.267-25.254-24.234-41.431-68.137-18.892-93.981 22.502-25.713 48.357-10.068 68.067-5.577-5.484-19.554-21.913-37.745-1.68-63.341 20.215-25.61 48.355-10.074 68.087-5.622-5.503-19.483-21.215-39.498-1.759-63.232 19.632-23.806 51.786-11.121 73.023-4.524-8.196-21.072-25.739-43.786-3.199-69.241 22.503-25.639 74.508-13.777 99.912 10.461 25.334 24.232 27.765 62.638 5.482 85.629-15.385 15.772-38.318 19.442-59.468 12.806zM810.822 362.394c-183.636 183.636-97.262 97.227-196.086 196.262 0 0-29.7 29.567-68.844 12.392-27.48-12.042-62.857-28.453-89.477-40.98-29.252-15.34-50.303-20.087-60.187-20.021-56.549 0.371-102.429 45.822-102.429 102.316 0 36.647 19.456 68.555 48.474 86.665 40.806 28.238 134.73 78.196 134.73 78.196s-28.613 36.258-91.294 36.258c-62.663 0-193.582-85.767-193.582-85.767s-37.14-23.79-90.084-2.361l-102.044 35.534v-354.7c0 0 29.138-8.434 55.32-19.128 5.913 16.863 15.454 32.436 28.69 45.298 43.435 41.372 115.43 41.802 154.949 1.11 11.905-12.37 20.212-27.126 24.451-43.438 15.923-4.915 30.347-13.621 41.937-25.563 11.942-12.288 20.218-27.126 24.492-43.356 15.905-4.919 30.308-13.658 41.937-25.608 13.097-13.507 21.823-29.821 25.897-47.495 16.626-4.844 31.652-13.853 43.751-26.225 23.751-24.396 32.18-57.491 27.073-89.418 0.041 0 0.121 0 0.158-0.072 0.387-0.508 14.715-16.478 23.648-25.487 17.508-17.525 46.096-17.525 63.658 0 17.447 17.519 17.523 46.051 0 63.658-0.629 0.627-63.164 66.040-58.132 71.111 4.997 5.038 84.67-77.867 86.155-79.383 17.486-17.49 46.055-17.49 63.619 0 17.523 17.519 17.484 46.051 0 63.617-0.86 0.817-4.446 4.254-5.777 5.622 0 0-78.995 70.371-72.983 76.384 6.087 6.048 104.21-85.52 104.368-85.52 17.639-15.884 44.808-15.768 61.776 1.21 16.511 16.509 16.863 42.621 2.228 60.217-0.309 0.938-74.781 78.762-68.968 84.617 5.896 5.933 79.583-69.943 79.739-70.099 17.445-17.486 46.055-17.486 63.619 0 17.486 17.486 17.486 46.053 0 63.697-0.238 0.15-0.549 0.305-0.782 0.459z" />
<glyph unicode="&#xe912;" glyph-name="healthcare-1" d="M826.192 750.912c0 110.268-89.732 201.905-200.002 201.905-42.969 0-83.12-18.387-114.286-51.478-31.168 33.091-71.318 51.478-114.286 51.478-110.269 0-200-91.636-200-201.905 0-110.91 81.389-168.164 175.642-234.486 38.867-27.343 79.074-55.636 119.922-91.072l18.693-16.238 18.722 16.208c46.178 39.96 90.097 71.234 128.824 98.83 93.164 66.32 166.771 118.72 166.771 226.757zM597.621 665.198h-57.144v-57.143h-57.144v57.143h-57.143v57.143h57.143v57.143h57.144v-57.143h57.144v-57.143zM965.242 691.484c-58.29 0-73.333-270.859-74.479-276.574-5.803-39.687-33.763-98.436-80.979-133.812l-123.753-89.854-34.265 45.758 123.758 89.824c49.020 36.757 71.363 99.513 10.094 99.513-54.872 0-157.442-63.527-187.85-88.732-36.308-30.096-57.29-74.811-57.29-121.973v-238.056h171.427c0 27.429 14.858 57.334 37.712 85.904 24.001 31.427 58.29 63.429 93.716 96.002 67.428 63.425 137.333 128.571 146.476 194.853 5.432 44.524 9.938 120.892 9.713 188.953-0.249 76.219-6.705 145.729-34.28 148.192zM419.311 342.913c-80.574 55.428-141.712 83.427-181.141 83.427-61.268 0-38.926-62.757 10.097-99.508l123.754-89.829-34.263-45.758-123.754 89.854c-47.219 35.377-75.177 94.125-80.981 133.812-1.144 5.72-16.19 276.575-74.478 276.575-32-2.857-35.429-96-33.712-185.143 1.145-65.144 6.286-128.569 9.141-152.004 9.145-66.282 79.050-131.428 146.478-194.853 35.428-32.573 69.712-64.571 93.715-96.002 22.855-28.57 37.712-58.475 37.712-85.904h171.428v236.919c0.004 50.478-23.693 98.026-63.996 128.414z" />
<glyph unicode="&#xe913;" glyph-name="idea-1" d="M78.295 619.024h-48.2c-16.568 0-30-13.432-30-30s13.432-30 30-30h48.2c39.738 1.464 39.752 58.53 0 60zM994.104 619.024h-48.201c-16.564 0-29.998-13.432-29.998-30s13.434-30 29.998-30h48.201c39.741 1.464 39.751 58.53 0 60zM184.151 874.562c29.132-27.064 69.5 13.276 42.426 42.426l-34.078 34.078c-11.714 11.714-30.71 11.714-42.426 0s-11.716-30.71 0-42.426l34.078-34.078zM840.075 303.484c-29.135 27.063-69.495-13.278-42.423-42.423l34.075-34.080c11.713-11.713 30.705-11.717 42.428 0 11.717 11.713 11.717 30.71 0 42.428l-34.080 34.075zM184.151 303.484l-34.078-34.075c-11.716-11.713-11.716-30.71 0-42.428 11.712-11.713 30.706-11.717 42.426 0l34.078 34.080c27.066 29.135-13.28 69.495-42.426 42.423zM831.722 951.066l-34.080-34.078c-11.713-11.714-11.713-30.71 0-42.426 11.713-11.712 30.705-11.72 42.428 0l34.080 34.078c27.063 29.134-13.278 69.494-42.428 42.426zM653.073 559.023l-56.583-56.579c31.544-61.012-15.384-137.144-84.382-136.223-51.98 0-94.268 42.286-94.268 94.267-0.916 68.991 75.217 115.931 136.228 84.383l65.365 65.367c5.622 5.626 13.253 8.788 21.211 8.788h205.38c-46.494 404.369-621.489 404.073-667.833 0h192.955l56.579 56.579c-31.543 61.009 15.388 137.147 84.387 136.225 51.975 0 94.267-42.289 94.267-94.268 0.917-68.991-75.215-115.932-136.227-84.382l-65.365-65.367c-5.624-5.626-13.256-8.788-21.212-8.788h-205.362c7.562-83.808 46.557-161.986 109.644-218.014 34.356-31.759 56.643-74.435 63.475-120.242 0.074 0.010 321.441 0.010 321.554 0 6.827 45.797 29.116 88.478 63.478 120.242 63.088 56.023 102.083 134.206 109.641 218.014l-192.931-0.002zM353.572 126.503c0-77.161 55.419-141.585 128.536-155.648-2.982-46.485 62.997-46.455 60.003 0 73.114 14.063 128.536 78.487 128.536 155.648v34.27h-317.075v-34.27zM546.358 717.559c0 18.894-15.37 34.268-34.265 34.268-45.399-1.724-45.387-66.818 0-68.536 18.895 0.002 34.265 15.374 34.265 34.268zM477.857 460.488c0-18.895 15.375-34.27 34.27-34.27 45.397 1.726 45.383 66.819 0 68.535-18.895 0-34.27-15.372-34.27-34.265z" />
<glyph unicode="&#xe914;" glyph-name="Location" d="M512 960c-101.801-0.135-199.395-40.636-271.379-112.621s-112.485-169.578-112.621-271.379c0-275.681 357.76-620.959 372.96-635.52 2.957-2.872 6.917-4.48 11.040-4.48 4.122 0 8.084 1.608 11.039 4.48 15.201 14.561 372.961 359.839 372.961 635.52-0.133 101.801-40.637 199.395-112.62 271.379-71.987 71.985-169.58 112.485-271.38 112.621zM512 400c-34.809 0-68.837 10.322-97.78 29.66-28.943 19.34-51.502 46.828-64.823 78.988s-16.806 67.547-10.015 101.688c6.791 34.141 23.554 65.501 48.167 90.115s55.974 41.376 90.115 48.167c34.141 6.791 69.531 3.305 101.689-10.015s59.648-35.879 78.986-64.823c19.338-28.943 29.66-62.971 29.66-97.78-0.031-46.669-18.58-91.418-51.584-124.418-32.998-33.001-77.747-51.551-124.416-51.582z" />
<glyph unicode="&#xe915;" glyph-name="payment1" d="M972.712 718.894l-108.705 46.186v147.715c-0.122 12.621-5.244 24.679-14.242 33.528s-21.14 13.768-33.762 13.677h-288.026c-12.622 0.091-24.763-4.827-33.764-13.677-8.999-8.85-14.121-20.908-14.241-33.529v-140.916l-124.707-52.985c-7.696-3.287-13.78-9.484-16.928-17.237s-3.104-16.439 0.122-24.159l61.557-143.415c10.296 3.782 20.443 7.097 30.462 10.111l-62.517 145.811 112.011 47.591v-181.064c10.941 2.173 21.608 3.955 32.002 5.348v350.915c0.041 4.207 1.748 8.227 4.747 11.177s7.048 4.589 11.255 4.559h288.026c4.207 0.031 8.254-1.609 11.255-4.559s4.707-6.97 4.746-11.177v-401.050h-90.915c9.147-9.966 17.464-20.664 24.867-31.986h125.689c4.382-0.284 8.596-1.788 12.168-4.341 15.522-15.298 22.971-30.932 22.136-46.463-1.446-26.825-26.504-47.003-26.707-47.162-1.746-1.361-3.19-3.070-4.241-5.019-1.050-1.947-1.686-4.094-1.864-6.299-0.178-2.207 0.104-4.426 0.828-6.518s1.875-4.009 3.379-5.634c23.414-25.295 33.485-49.608 29.938-72.27-5.879-37.549-47.055-61.168-47.432-61.378-3.43-1.909-6.038-5.012-7.329-8.72-1.289-3.708-1.169-7.759 0.335-11.384 11.227-27.048 12.094-50.716 2.579-70.356-17.171-35.43-62.838-48.677-63.257-48.795-2.516-0.694-4.823-1.995-6.721-3.787-1.896-1.79-3.326-4.020-4.165-6.492s-1.058-5.111-0.641-7.687c0.417-2.576 1.457-5.011 3.031-7.092 15.242-20.152 20.764-38.144 16.414-53.472-6.301-22.198-31.449-35.266-39.39-38.901h-105.597c-5.503-0.417-11.034 0.309-16.246 2.129s-9.991 4.698-14.039 8.452c-4.048 3.753-7.277 8.301-9.486 13.361-2.209 5.058-3.347 10.519-3.347 16.040s1.139 10.982 3.347 16.041c2.209 5.058 5.438 9.608 9.486 13.361s8.828 6.63 14.039 8.452c5.212 1.82 10.743 2.544 16.246 2.129h36.878c4.243 0 8.31 1.684 11.308 4.684 3 2.998 4.686 7.066 4.686 11.308s-1.686 8.309-4.686 11.308c-2.998 3-7.066 4.684-11.308 4.684h-36.878c-5.503-0.417-11.034 0.309-16.246 2.129s-9.991 4.698-14.039 8.452c-4.048 3.753-7.277 8.301-9.486 13.361s-3.347 10.521-3.347 16.041c0 5.519 1.139 10.98 3.347 16.040s5.438 9.608 9.486 13.361c4.048 3.753 8.828 6.631 14.039 8.452s10.743 2.546 16.246 2.129h68.878c2.103-0.005 4.186 0.406 6.132 1.208 1.944 0.802 3.711 1.977 5.199 3.464 1.49 1.485 2.671 3.25 3.476 5.192 0.807 1.944 1.222 4.025 1.222 6.128s-0.415 4.186-1.222 6.13c-0.805 1.942-1.986 3.706-3.476 5.192-1.488 1.485-3.256 2.662-5.199 3.464-1.946 0.802-4.029 1.213-6.132 1.208h-68.878c-19.495 0.387-38.349-6.972-52.431-20.462-14.080-13.489-22.24-32.011-22.689-51.505 0.062-10.854 2.622-21.548 7.479-31.253 4.857-9.707 11.88-18.165 20.529-24.723-8.649-6.557-15.672-15.016-20.529-24.723-4.857-9.705-7.417-20.399-7.479-31.253 0.011-14.318 4.447-28.282 12.703-39.982h-171.262c-4.451 0.5-8.678 2.219-12.214 4.966l-80.52 70.494c-25.164 20.595-74.72 20.485-76.701 20.498h-32v335.851h24.126c25.912 0.814 50.997 9.329 72.049 24.461 1.794 1.144 3.422 2.191 4.903 3.077 164.204 98.772 315.224 62.656 334.244 57.501 34.869-23.891 65.681-80.744 91.607-169.050 1.848-8.377 0.646-17.138-3.392-24.708-4.036-7.569-10.644-13.448-18.632-16.576-18.856-7.134-39.601 0.33-63.484 22.789-25.51 23.986-54.452 53.282-61.592 64.651-1.538 2.424-3.708 4.386-6.275 5.673 3.794 9.047 7.069 18.303 9.806 27.722 1.178 4.075 0.689 8.448-1.358 12.163-2.046 3.713-5.484 6.464-9.555 7.645-4.073 1.181-8.448 0.699-12.163-1.344-3.716-2.041-6.471-5.475-7.657-9.544-33.785-116.328-124.441-116.468-128.32-116.409-4.235 0.085-8.333-1.515-11.391-4.447s-4.827-6.96-4.919-11.195c-0.092-4.235 1.501-8.335 4.428-11.398s6.951-4.839 11.186-4.938h0.29c27.367 1.465 53.945 9.679 77.368 23.909 23.421 14.23 42.959 34.034 56.867 57.648 19.219-22.302 39.706-43.481 61.359-63.432 24.186-22.75 48.019-34.18 71.159-34.18 8.753 0.021 17.429 1.642 25.6 4.785 15.443 6.084 28.151 17.569 35.762 32.32s9.606 31.763 5.616 47.874c-10.667 36.329-43.128 146.889-106.819 188.16-1.213 0.787-2.528 1.405-3.909 1.838-7.051 2.214-174.68 52.84-362.327-60.043-1.698-1.022-3.577-2.217-5.636-3.533-15.999-11.753-35.114-18.513-54.945-19.43h-215.997c-4.242 0.002-8.311-1.684-11.312-4.682-3-3-4.687-7.069-4.688-11.312v-383.829c0.017-12.722 5.080-24.92 14.078-33.916 8.998-8.994 21.198-14.052 33.921-14.062h111.997c12.724 0.011 24.922 5.069 33.921 14.062 8.999 8.995 14.062 21.193 14.078 33.916l32.625 0.004c13.277 0 43.485-3.178 55.397-12.92l79.906-69.966c9.37-7.971 21.14-12.576 33.434-13.075h342.63c1.946 0 3.875 0.355 5.696 1.047 1.999 0.761 49.131 19.131 61.131 60.882 2.781 10.844 3.316 22.141 1.575 33.201-1.741 11.057-5.724 21.643-11.704 31.108 27.055 11.564 49.408 31.929 63.433 57.794 6.068 13.155 9.453 27.388 9.958 41.869 0.505 14.479-1.882 28.914-7.021 42.461 16.621 12.127 45.715 38.326 51.8 76.493 4.617 28.944-4.739 58.264-27.816 87.317 15.286 16.015 24.742 36.707 26.846 58.748 1.458 25.187-9.174 49.168-31.605 71.276-2.669 2.556-5.671 4.739-8.925 6.492l72.217 172.948c3.19 7.712 3.208 16.37 0.051 24.096-3.157 7.724-9.234 13.891-16.912 17.163zM207.997 31.958c-0.005-4.241-1.693-8.307-4.693-11.305-3-3-7.066-4.686-11.308-4.687h-111.997c-4.241 0.004-8.308 1.688-11.307 4.687s-4.687 7.064-4.692 11.305v367.837h143.998v-367.837zM885.707 511.744h-21.7v218.802l95.966-40.951-74.266-177.851zM672 600c18.986 0 37.547 5.63 53.335 16.179 15.787 10.547 28.091 25.542 35.358 43.082 7.265 17.542 9.167 36.845 5.463 55.467s-12.848 35.727-26.273 49.154c-13.427 13.425-30.531 22.568-49.154 26.272s-37.925 1.803-55.465-5.463c-17.542-7.266-32.535-19.57-43.084-35.357s-16.179-34.348-16.179-53.335c0.028-25.452 10.153-49.853 28.149-67.851 17.998-17.998 42.399-28.121 67.851-28.149zM672 760c12.659 0 25.032-3.753 35.556-10.787 10.526-7.032 18.729-17.027 23.573-28.721s6.11-24.562 3.64-36.977c-2.468-12.415-8.565-23.819-17.514-32.77-8.951-8.951-20.355-15.046-32.77-17.516-12.415-2.468-25.282-1.202-36.977 3.642s-21.691 13.047-28.723 23.571c-7.032 10.526-10.786 22.899-10.786 35.558 0.019 16.967 6.769 33.234 18.767 45.233 11.997 11.998 28.264 18.748 45.233 18.767zM135.996 309.165c8.834 0 15.996 7.161 15.996 15.996s-7.162 15.997-15.996 15.997c-8.835 0-15.996-7.163-15.996-15.997s7.162-15.996 15.996-15.996z" />
<glyph unicode="&#xe916;" glyph-name="phone-11" d="M594.299 649.131c30.254 0 60.846-11.477 84.096-34.73 23.255-23.254 34.734-53.846 34.734-84.096 0-17.664 14.336-32 32-32s32 14.336 32 32c0 46.55-17.664 93.568-53.463 129.366-35.799 35.754-82.816 53.461-129.367 53.461-17.664 0-32-14.336-32-32s14.336-32 32-32zM594.427 800.003c68.992 0.298 137.943-26.112 190.72-78.848 52.736-52.779 79.15-121.728 78.848-190.72-0.082-17.664 14.208-32.043 31.831-32.128 17.664-0.086 32.087 14.165 32.169 31.829 0.384 85.462-32.256 170.923-97.618 236.246-65.326 65.366-150.784 98.006-236.247 97.622-17.664-0.086-31.913-14.507-31.831-32.171 0.087-17.621 14.464-31.914 32.128-31.829zM543.063 209.705c8.146-4.864 18.514-4.096 25.856 2.007 23.040 19.2 73.385 61.143 101.76 84.777 12.498 10.414 29.696 13.23 44.841 7.296 66.217-25.385 132.48-37.929 198.697-37.417 11.991 0.256 23.552-4.311 32.128-12.672 8.576-8.407 13.399-19.84 13.399-31.831 0.256-49.49 0.256-126.802 0.256-174.546 0-23.767-18.601-43.392-42.327-44.718-23.209-1.28-47.273-2.601-47.273-2.601-445.056 0-806.4 361.344-806.4 806.4 0 0 1.322 24.064 2.602 47.274 1.323 23.723 20.95 42.326 44.715 42.326h176.128c24.576 0 44.544-19.84 44.757-44.416 1.28-66.902 14.038-133.802 36.864-200.704 5.163-14.806 2.134-31.232-7.893-43.264-23.424-28.246-66.048-79.402-85.462-102.698-6.144-7.296-6.954-17.707-2.048-25.899 67.456-111.362 157.994-201.898 269.399-269.314z" />
<glyph unicode="&#xe917;" glyph-name="podium-1" d="M742.831 792.372c-3.947 12.126-14.438 20.97-27.042 22.8l-119.966 17.436-53.67 108.724c-5.628 11.428-17.271 18.668-30.029 18.668s-24.405-7.24-30.029-18.668l-53.67-108.726-119.99-17.436c-12.606-1.832-23.096-10.674-27.042-22.8s-0.654-25.44 8.484-34.338l86.842-84.628-20.52-119.488c-2.16-12.572 3.010-25.276 13.326-32.768 10.338-7.522 24.012-8.448 35.286-2.551l107.322 56.418 107.298-56.418c11.533-6.050 25.152-4.804 35.285 2.551 10.313 7.492 15.484 20.194 13.325 32.756l-20.501 119.5 86.822 84.628c9.126 8.898 12.395 22.214 8.469 34.34zM645.978 449.626h-267.98c-18.5 0-33.498-14.997-33.498-33.498v-480.132h334.975v480.132c0 18.5-14.997 33.498-33.498 33.498zM43.040 315.644c-18.5 0-33.498-14.997-33.498-33.498v-319.654c0-14.63 11.858-26.487 26.484-26.487h241.498v379.639h-234.484zM980.983 181.645h-234.483v-245.649h241.498c14.626 0 26.483 11.857 26.483 26.483v185.668c0 18.5-14.997 33.498-33.498 33.498z" />
<glyph unicode="&#xe918;" glyph-name="right-arrow-1-4" d="M424.274 746.109l-19.084-71.218 284.871-76.329-522.452-301.639 37.239-64.5 522.452 301.636-76.331-284.867 71.218-19.084 109.044 406.956-406.956 109.045z" />
<glyph unicode="&#xe919;" glyph-name="success-1" d="M506.333 333.268c63.644 0 115.24 51.596 115.24 115.242s-51.596 115.24-115.24 115.24c-63.646 0-115.242-51.593-115.242-115.24s51.596-115.242 115.242-115.242zM812.316 585.386h-0.028c-37.264 0-67.507-30.243-67.507-67.535v-66.302c0-130.651-105.949-236.628-236.628-236.628-130.69 0-236.658 105.979-236.658 236.628v66.302c0 37.322-30.273 67.535-67.533 67.535-37.264 0-67.507-30.243-67.507-67.535v-65.071c0-121.183 57.998-228.817 147.738-296.662 5.201-3.933 8.257-10.075 8.257-16.596v-182.675c0-11.513 9.335-20.848 20.848-20.848h385.869c11.515 0 20.85 9.335 20.85 20.848v180.817c0 6.563 3.091 12.737 8.35 16.666 91.981 68.682 151.457 179.114 151.457 302.464v61.058c-0.002 37.29-30.243 67.533-67.507 67.533zM398.557 765.376c3.577-4.347 5.399-9.874 5.111-15.497l-3.914-75.538c-0.849-16.41 15.574-28.186 30.841-22.118l69.218 27.513c5.346 2.125 11.308 2.125 16.654 0l69.218-27.513c15.269-6.067 31.69 5.709 30.841 22.118l-3.914 75.538c-0.291 5.623 1.531 11.15 5.111 15.497l46.764 56.803c10.349 12.569 4.368 31.629-11.306 36.034l-72.655 20.415c-5.222 1.468-9.742 4.768-12.726 9.296l-40.839 61.94c-8.909 13.514-28.735 13.514-37.646 0l-40.834-61.942c-2.986-4.528-7.503-7.829-12.726-9.296l-72.657-20.415c-15.677-4.403-21.655-23.463-11.306-36.034l46.767-56.801zM300.386 690.481c12.211 12.211 12.211 32.012 0 44.225l-123.819 123.818c-12.211 12.211-32.013 12.211-44.225 0s-12.213-32.013 0-44.226l123.819-123.817c12.211-12.214 32.012-12.211 44.225 0zM891.657 858.524c-12.211 12.211-32.012 12.211-44.225 0l-123.818-123.818c-12.214-12.211-12.214-32.013 0-44.225 12.214-12.214 32.012-12.214 44.225 0l123.818 123.817c12.214 12.211 12.214 32.013 0 44.226z" />
<glyph unicode="&#xe91a;" glyph-name="telephone-call-11" d="M940.575 212.531c-27.965 23.455-192 127.329-219.264 122.557-12.8-2.268-22.589-13.184-48.799-44.447-12.119-15.391-25.431-29.798-39.808-43.105-26.342 6.364-51.84 15.816-75.965 28.16-94.618 46.065-171.055 122.527-217.091 217.154-12.344 24.125-21.796 49.625-28.16 75.968 13.303 14.377 27.716 27.688 43.104 39.808 31.231 26.208 42.176 35.936 44.448 48.8 4.768 27.328-99.2 191.296-122.56 219.264-9.792 11.584-18.688 19.36-30.080 19.36-33.024 0-182.4-184.704-182.4-208.64 0-1.952 3.2-194.24 246.048-441.312 247.075-242.847 439.362-246.047 441.312-246.047 23.936 0 208.64 149.376 208.64 182.4 0 11.392-7.777 20.285-19.425 30.080zM736 480.061h64c-0.077 67.856-27.075 132.911-75.064 180.892-47.995 47.982-113.065 74.971-180.936 75.047v-63.985c50.908-0.051 99.712-20.291 135.711-56.278 35.994-35.987 56.238-84.782 56.289-135.676zM896 480.050h64c-0.128 110.291-43.996 216.028-121.984 294.016s-183.726 121.857-294.016 121.984v-64c93.322-0.11 182.789-37.231 248.781-103.22 65.987-65.989 103.107-155.458 103.219-248.78z" />
<glyph unicode="&#xe91b;" glyph-name="long-icon-right" horiz-adv-x="1975" d="M1952.234 536.32c-0.029 0.023-0.044 0.050-0.073 0.073l-403.083 401.143c-30.201 30.051-79.045 29.939-109.1-0.262-30.054-30.198-29.945-79.041 0.256-109.096l270.636-269.321h-1633.727c-42.606 0-77.143-34.537-77.143-77.143s34.537-77.143 77.143-77.143h1633.72l-270.621-269.323c-30.201-30.054-30.318-78.899-0.263-109.093 30.062-30.208 78.907-30.31 109.1-0.263l403.090 401.143c0.022 0.023 0.037 0.050 0.066 0.073 30.215 30.155 30.12 79.157 0 109.211z" />
<glyph unicode="&#xe91c;" glyph-name="right-down" d="M84.034 73.684c-24.258 26.359-22.554 67.393 3.806 91.65l764.977 703.963c26.361 24.258 67.387 22.554 91.646-3.806 24.257-26.36 22.553-67.395-3.806-91.653l-764.974-703.96c-26.36-24.257-67.393-22.553-91.65 3.806zM54.31 856.555c1.486 35.79 31.706 63.601 67.498 62.114l777.681-32.299c35.79-1.486 63.6-31.707 62.114-67.497l-32.299-777.674c-1.486-35.792-31.707-63.6-67.497-62.114-35.799 1.488-63.602 31.705-62.116 67.497l29.607 712.868-712.874 29.607c-35.792 1.487-63.602 31.699-62.115 67.497z" />
<glyph unicode="&#xe91d;" glyph-name="calendarblank" d="M832 832h-96v32c0 8.487-3.371 16.626-9.372 22.628s-14.14 9.372-22.628 9.372c-8.488 0-16.626-3.372-22.628-9.372s-9.372-14.141-9.372-22.628v-32h-320v32c0 8.487-3.371 16.626-9.372 22.628s-14.14 9.372-22.628 9.372c-8.488 0-16.626-3.372-22.628-9.372s-9.372-14.141-9.372-22.628v-32h-96c-16.974 0-33.252-6.743-45.255-18.745s-18.745-28.281-18.745-45.255v-640c0-16.973 6.743-33.252 18.745-45.255 12.002-12.001 28.281-18.745 45.255-18.745h640c16.973 0 33.252 6.744 45.255 18.745 12.001 12.004 18.745 28.282 18.745 45.255v640c0 16.974-6.744 33.252-18.745 45.255-12.004 12.002-28.282 18.745-45.255 18.745zM288 768v-32c0-8.487 3.371-16.626 9.372-22.628s14.14-9.372 22.628-9.372c8.488 0 16.626 3.372 22.628 9.372s9.372 14.141 9.372 22.628v32h320v-32c0-8.487 3.371-16.626 9.372-22.628s14.14-9.372 22.628-9.372c8.488 0 16.626 3.372 22.628 9.372s9.372 14.141 9.372 22.628v32h96v-128h-640v128h96zM832 128h-640v448h640v-448z" />
<glyph unicode="&#xe91e;" glyph-name="calendar" d="M927.599 884.704h-84.33c-7.528 34.635-37.646 60.235-73.788 60.235-36.14 0-66.258-25.6-73.788-60.235h-367.436c-7.528 34.635-37.646 60.235-73.788 60.235-36.14 0-67.764-25.6-73.788-60.235h-84.329c-45.177 0-81.318-36.141-81.318-81.318v-627.952c0-45.178 36.141-81.318 81.318-81.318h492.423c25.6-82.824 102.4-143.060 192.754-143.060 97.882 0 179.2 69.272 197.27 161.13 18.070 15.058 30.118 39.154 30.118 63.248v627.952c0 45.176-36.142 81.318-81.318 81.318zM769.481 914.822c25.6 0 45.176-19.576 45.176-45.176s-19.576-45.176-45.176-45.176c-25.6 0-45.176 19.576-45.176 45.176s21.082 45.176 45.176 45.176zM254.469 914.822c25.6 0 45.178-19.576 45.178-45.176s-19.578-45.176-45.178-45.176c-25.6 0-45.176 19.576-45.176 45.176s19.576 45.176 45.176 45.176zM96.352 854.586h84.329c7.53-34.635 37.648-60.235 73.788-60.235 36.142 0 66.26 25.6 73.788 60.235h368.942c7.53-34.635 37.648-60.235 73.788-60.235 36.142 0 66.258 25.6 73.788 60.235h82.824c28.612 0 51.2-22.588 51.2-51.2v-81.318h-933.647v81.318c0 28.612 22.588 51.2 51.2 51.2zM96.352 122.728c-28.612 0-51.2 24.094-51.2 52.706v515.012h933.647v-495.436c-19.576 90.352-100.894 158.118-197.27 158.118-111.436 0-201.788-90.354-201.788-201.788 0-10.542 1.506-19.578 3.010-30.118h-486.399v1.506zM781.529-18.826c-94.872 0-171.672 76.8-171.672 171.67 0 94.872 76.8 171.672 171.672 171.672 94.87 0 171.67-76.8 171.67-171.672 0-94.87-76.8-171.67-171.67-171.67zM371.927 639.244h-81.316c-9.036 0-15.060-6.022-15.060-15.058v-81.318c0-9.036 6.024-15.058 15.060-15.058h81.316c9.036 0 15.060 6.022 15.060 15.058v81.318c0 7.53-6.024 15.058-15.060 15.058zM356.869 557.926h-51.2v51.2h51.2v-51.2zM548.135 639.244h-81.318c-9.034 0-15.058-6.022-15.058-15.058v-81.318c0-9.036 6.024-15.058 15.058-15.058h81.318c9.036 0 15.060 6.022 15.060 15.058v81.318c0 7.53-6.024 15.058-15.060 15.058zM533.077 557.926h-51.2v51.2h51.2v-51.2zM642.989 527.81h81.318c9.036 0 15.060 6.022 15.060 15.058v81.318c0 9.036-6.024 15.058-15.060 15.058h-81.318c-9.034 0-15.058-6.022-15.058-15.058v-81.318c0-9.036 7.53-15.058 15.058-15.058zM658.049 609.126h51.2v-51.2h-51.2v51.2zM819.196 527.812h81.318c9.036 0 15.058 6.022 15.058 15.058v81.318c0 9.034-6.022 15.058-15.058 15.058h-81.318c-9.034 0-15.058-6.024-15.058-15.058v-81.318c0-9.036 7.528-15.058 15.058-15.058zM834.256 609.128h51.2v-51.2h-51.2v51.2zM195.791 479.624h-81.318c-9.035 0-15.059-6.024-15.059-15.058v-81.318c0-9.036 6.024-15.060 15.059-15.060h81.318c9.034 0 15.058 6.024 15.058 15.060v81.318c0 7.528-6.024 15.058-15.058 15.058zM180.731 396.8h-51.199v51.2h51.199v-51.2zM371.927 479.624h-81.316c-9.036 0-15.060-6.024-15.060-15.058v-81.318c0-9.036 6.024-15.060 15.060-15.060h81.316c9.036 0 15.060 6.024 15.060 15.060v81.318c0 7.528-6.024 15.058-15.060 15.058zM356.869 396.8h-51.2v51.2h51.2v-51.2zM642.989 366.68h81.318c9.036 0 15.060 6.024 15.060 15.058v81.318c0 9.036-6.024 15.058-15.060 15.058h-81.318c-9.034 0-15.058-6.022-15.058-15.058v-81.318c0-7.528 7.53-15.058 15.058-15.058zM658.049 449.504h51.2v-51.2h-51.2v51.2zM195.791 318.494h-81.318c-9.035 0-15.059-6.022-15.059-15.058v-81.318c0-9.036 6.024-15.058 15.059-15.058h81.318c9.034 0 15.058 6.022 15.058 15.058v81.318c0 9.036-6.024 15.058-15.058 15.058zM180.731 237.176h-51.199v51.202h51.199v-51.202zM371.927 318.494h-81.316c-9.036 0-15.060-6.022-15.060-15.058v-81.318c0-9.036 6.024-15.058 15.060-15.058h81.316c9.036 0 15.060 6.022 15.060 15.058v81.318c0 9.036-6.024 15.058-15.060 15.058zM356.869 237.176h-51.2v51.202h51.2v-51.202zM548.135 479.624h-81.318c-9.034 0-15.058-6.024-15.058-15.058v-81.318c0-9.036 6.024-15.060 15.058-15.060h81.318c9.036 0 15.060 6.024 15.060 15.060v81.318c0 7.528-6.024 15.058-15.060 15.058zM533.077 396.8h-51.2v51.2h51.2v-51.2zM871.887 237.176l-132.518-135.53-46.682 66.26c-4.518 6.022-15.060 7.528-21.082 3.012-6.024-4.518-7.53-13.554-3.012-21.084l57.224-79.81c3.010-3.012 6.022-6.024 10.54-6.024s9.036 1.506 12.048 4.518l146.070 147.576c6.024 6.024 6.024 15.058 0 21.082s-16.564 6.024-22.588 0z" />
<glyph unicode="&#xe91f;" glyph-name="arrow-right" horiz-adv-x="1280" d="M768 960.025l-89.6-89.6 358.4-358.402h-1036.8v-128.001h1036.8l-358.4-358.403 89.6-89.6 512 512.003-512 512.002z" />
<glyph unicode="&#xe920;" glyph-name="arrow-left" horiz-adv-x="1280" d="M512.125-64.026l89.599 89.6-358.4 358.399h1036.803v128.001h-1036.803l358.399 358.402-89.599 89.6-512-512.002 512-512z" />
<glyph unicode="&#xe921;" glyph-name="check" d="M512 960c-282.306 0-512-229.694-512-512s229.694-512 512-512c282.305 0 512 229.695 512 512s-229.695 512-512 512zM798.157 582.737l-327.219-324.649c-19.248-19.251-50.045-20.531-70.577-1.286l-173.233 157.834c-20.531 19.248-21.815 51.329-3.85 71.86 19.248 20.531 51.329 21.815 71.86 2.566l137.303-125.753 292.574 292.57c20.531 20.531 52.611 20.531 73.142 0s20.531-52.612 0-73.143z" />
<glyph unicode="&#xe922;" glyph-name="employment-law" horiz-adv-x="1097" d="M1071.627 747.355c13.133-18.846 20.944-41.616 20.944-66.213v-621.714c0-64.113-52.458-116.571-116.571-116.571h-854.857c-64.114 0-116.571 52.458-116.571 116.571v621.714c0 24.596 7.81 47.367 20.944 66.213l156.828-247.442c21.682-32.486 57.936-51.913 96.987-51.913h121.002c16.084-45.115 58.829-77.714 109.422-77.714h77.714c50.589 0 93.334 32.6 109.422 77.714h121c39.051 0 75.304 19.427 97.492 52.652l156.321 246.665-0.077 0.039zM509.714 525.714c-21.409 0-38.857-17.448-38.857-38.857s17.448-38.857 38.857-38.857h77.714c21.409 0 38.857 17.448 38.857 38.857s-17.448 38.857-38.857 38.857h-77.714zM88.852 792.546c10.336 3.031 21.022 5.168 32.29 5.168h194.286v38.857c0 64.114 52.458 116.571 116.571 116.571h233.143c64.113 0 116.571-52.457 116.571-116.571v-38.857h194.286c11.268 0 21.954-2.137 32.289-5.168l-158.109-249.541c-7.227-10.84-19.31-17.291-32.329-17.291h-121c-16.088 45.115-58.829 77.714-109.422 77.714h-77.714c-50.593 0-93.334-32.6-109.422-77.714h-121.001c-13.017 0-25.102 6.488-31.824 16.552l-158.615 250.28zM393.143 797.714h310.857v38.857c0 21.371-17.485 38.857-38.857 38.857h-233.143c-21.372 0-38.857-17.486-38.857-38.857v-38.857z" />
<glyph unicode="&#xe923;" glyph-name="real-estate-law" d="M1023.905 512.888c-0.699 9.979-5.238 19.1-12.8 25.661l-474.532 412.308c-7.020 6.080-15.798 9.12-24.579 9.12s-17.562-3.040-24.581-9.12l-474.533-412.311c-15.6-13.54-17.26-37.261-3.72-52.861 13.686-15.729 37.342-17.208 52.862-3.699l430.291 373.85c11.279 9.82 28.078 9.82 39.36 0l430.29-373.85c6.82-5.939 15.542-9.201 24.54-9.201 10.88 0 21.202 4.7 28.321 12.9 6.561 7.562 9.782 17.221 9.080 27.203zM313.16 363.948l-38.203-81.943c-13.007-27.948 7.204-59.942 38.203-59.942 30.899 0 51.244 31.969 38.18 59.942l-38.18 81.943zM715.935 239.107c27.146 0 45.092 28.076 33.6 52.741l-33.6 72.102-33.6-72.102c-11.51-24.707 6.502-52.741 33.6-52.741zM111.7 445.647v-479.631c0-16.499 13.5-30.001 30-30.001h740.578c16.499 0 30.001 13.501 30.001 30.001v479.631l-400.289 347.809-400.29-347.809zM544.53 519.99v-55.043h171.384c12.383 0 22.715-7.616 27.139-17.198 0.020-0.041 0.041-0.082 0.061-0.12l60.782-130.424c30.021-64.343-17.047-138.104-87.982-138.104-71.004 0-117.975 73.823-87.982 138.104l40.881 87.741h-124.283v-295.347h74.281c16.581 0 30.001-13.42 30.001-30.001 0-16.561-13.42-30.001-30.001-30.001h-213.645c-16.581 0-30.001 13.44-30.001 30.001 0 16.581 13.42 30.001 30.001 30.001h79.363v295.35h-124.306l45.481-97.603c31.598-67.712-17.917-145.283-92.562-145.283-74.744 0-124.12 77.612-92.582 145.283l65.382 140.285c4.38 9.636 14.743 17.318 27.2 17.318h171.384v55.043c0 16.561 13.42 30.001 30.001 30.001 16.563-0.003 30.003-13.443 30.003-30.003z" />
<glyph unicode="&#xe924;" glyph-name="family-law" horiz-adv-x="1135" d="M197.76 536.371l89.444 154.92c11.131 19.281 14.729 28.864 41.375 28.864h156.553c0.673 0 1.251-0.252 1.71-0.743 0.454-0.491 0.667-1.085 0.617-1.755-0.138-1.917-0.208-3.851-0.208-5.804 0-44.246 35.865-80.111 80.11-80.111 44.242 0 80.107 35.865 80.107 80.111 0 1.953-0.069 3.887-0.208 5.804-0.050 0.67 0.163 1.264 0.617 1.755 0.459 0.491 1.038 0.743 1.71 0.743h136.156c27.872 0 44.165 1.627 59.705-25.289l91.51-158.497c9.318-16.143 3.736-36.975-12.407-46.293-16.143-9.321-36.975-3.739-46.296 12.404l-73.36 127.062c-0.47 0.816-1.331 1.254-2.269 1.154-0.938-0.102-1.683-0.708-1.973-1.605l-18.933-59.010c-0.183-0.576-0.152-1.132 0.102-1.683l77.603-170.084c1.146-2.505 0.172-5.256-1.514-7.439-1.683-2.184-4.057-3.346-6.811-3.346h-57.402c-1.287 0-2.333-1.046-2.333-2.333v-139.275c0-0.686-0.266-1.281-0.775-1.738-0.512-0.459-1.129-0.656-1.813-0.581-18.202 2.009-36.385 2.729-54.419 1.694-0.664-0.039-1.248 0.174-1.735 0.631-0.482 0.457-0.731 1.030-0.731 1.694v142.881c0 10.312-8.361 18.67-18.673 18.67s-18.67-8.358-18.67-18.67v-148.74c0-1.101-0.739-2.029-1.816-2.278-16.273-3.714-31.556-9.028-45.928-15.764-0.742-0.351-1.547-0.299-2.242 0.144-0.695 0.44-1.082 1.146-1.082 1.968 0.061 63.087 0.144 126.173 0.213 189.26 0.044 39.947 15.75 74.14 46.030 100.2l29.452 25.348c17.535 15.089 19.545 41.987 4.459 59.519-15.089 17.533-41.987 19.547-59.519 4.456-6.587-5.671-12.999-11.665-19.417-17.533-8.889-8.117-17.795-16.212-26.84-24.158-10.298-9.042-20.92-18.152-31.963-26.281-2.995-2.206-14.095-10.115-18.197-10.774-0.26-0.042-0.487-0.044-0.747 0-4.063 0.67-15.155 8.571-18.147 10.774-11.040 8.128-21.662 17.239-31.963 26.281-9.044 7.943-17.953 16.038-26.84 24.158-6.418 5.864-12.83 11.862-19.417 17.533-17.533 15.092-44.431 13.077-59.519-4.456-15.086-17.533-13.074-44.431 4.459-59.519l29.452-25.348c30.28-26.057 45.986-60.253 46.030-100.2 0.069-63.087 0.152-126.173 0.213-189.26 0-0.822-0.387-1.53-1.079-1.971-0.695-0.443-1.497-0.495-2.242-0.144-14.372 6.736-29.654 12.047-45.928 15.764-1.077 0.249-1.816 1.176-1.816 2.278v148.74c0 10.312-8.358 18.67-18.67 18.67s-18.673-8.358-18.673-18.67v-142.881c0-0.667-0.246-1.237-0.728-1.694-0.487-0.459-1.071-0.67-1.738-0.631-21.465 1.232-43.157-0.030-64.833-2.983-0.692-0.097-1.326 0.094-1.852 0.554-0.526 0.457-0.8 1.060-0.8 1.757v379.256c0 1.043-0.656 1.929-1.652 2.233-0.996 0.302-2.037-0.066-2.615-0.933l-9.216-13.713c-0.030-0.047-0.058-0.089-0.086-0.138l-62.839-108.843c-9.319-16.143-30.152-21.725-46.295-12.404-16.14 9.321-21.725 30.153-12.403 46.293zM672.599 535.206l29.455 25.348c6.487 5.585 7.265 15.985 1.68 22.47-5.582 6.487-15.983 7.27-22.47 1.685-6.412-5.521-12.592-11.311-18.839-17.018-9.017-8.234-18.050-16.445-27.225-24.501-10.932-9.595-21.997-19.063-33.717-27.695-9.119-6.717-21.429-15.332-32.84-15.9l-1.196-0.058c-0.080-0.003-0.152-0.003-0.232 0l-1.196 0.058c-11.383 0.576-23.674 9.199-32.776 15.9-11.721 8.632-22.785 18.1-33.717 27.695-9.174 8.056-18.213 16.268-27.225 24.501-6.246 5.707-12.426 11.496-18.839 17.018-6.487 5.585-16.89 4.804-22.47-1.685-5.585-6.487-4.807-16.888 1.68-22.47l29.455-25.348c36.067-31.038 55.111-72.499 55.163-120.082 0.080-68.94 0.169-137.883 0.23-206.826 0-0.8 0.371-1.489 1.035-1.932 17.090-11.466 32.729-25.154 47.098-40.68 0.457-0.495 1.038-0.75 1.713-0.75s1.256 0.252 1.713 0.75c14.369 15.526 30.009 29.214 47.098 40.68 0.664 0.443 1.032 1.132 1.032 1.932 0.064 68.943 0.155 137.886 0.232 206.826 0.044 47.583 19.085 89.044 55.155 120.082zM567.36 658.49c29.472 0 53.361 23.892 53.361 53.362 0 29.471-23.89 53.363-53.361 53.363s-53.364-23.892-53.364-53.363c0-29.47 23.892-53.362 53.364-53.362zM430.257 803.162c38.287 0 69.316 31.031 69.316 69.316s-31.030 69.316-69.316 69.316c-38.287 0-69.316-31.031-69.316-69.316s31.030-69.316 69.316-69.316zM684.062 803.162c38.287 0 69.316 31.031 69.316 69.316s-31.030 69.316-69.316 69.316c-38.284 0-69.314-31.031-69.314-69.316s31.030-69.316 69.314-69.316zM1113.368 129.818c-0.518 0.75-1.306 1.185-2.261 1.265-187.995 15.222-394.89 186.794-541.857-16.821-0.451-0.628-1.115-0.985-1.89-0.985-0.778 0-1.436 0.354-1.89 0.985-146.966 203.615-353.86 32.043-541.858 16.821-0.955-0.080-1.741-0.515-2.262-1.265-0.518-0.744-0.624-1.589-0.304-2.427l34.988-91.698c0.464-1.218 1.725-1.965 3.114-1.843 168.459 15.061 336.158 117.411 506.45-78.831 0.457-0.531 1.060-0.816 1.763-0.816 0.706 0 1.301 0.285 1.763 0.816 170.291 196.24 337.992 93.892 506.448 78.831 1.389-0.122 2.649 0.623 3.114 1.843l34.988 91.698c0.318 0.839 0.213 1.683-0.304 2.427z" />
<glyph unicode="&#xe925;" glyph-name="user1" horiz-adv-x="997" d="M899.395 111.999c-59.317 105.321-150.727 180.841-257.404 216.641 52.768 32.261 93.763 81.421 116.696 139.93 22.93 58.505 26.527 123.128 10.237 183.937s-51.566 114.446-100.411 152.672c-48.842 38.227-108.555 58.93-169.965 58.93-61.408 0-121.12-20.703-169.965-58.93-48.842-38.227-84.119-91.864-100.409-152.672s-12.694-125.432 10.237-183.937c22.931-58.508 63.928-107.668 116.693-139.93-106.675-35.759-198.085-111.279-257.402-216.641-2.175-3.641-3.618-7.696-4.243-11.919-0.625-4.225-0.42-8.537 0.603-12.679s2.843-8.030 5.354-11.439c2.51-3.406 5.66-6.265 9.263-8.402s7.586-3.511 11.715-4.042c4.129-0.531 8.319-0.207 12.323 0.954 4.005 1.159 7.743 3.129 10.994 5.796s5.948 5.977 7.934 9.731c73.377 130.242 203.072 208.001 346.903 208.001 143.834 0 273.529-77.759 346.904-208.001 1.986-3.754 4.683-7.063 7.936-9.731 3.25-2.668 6.987-4.638 10.992-5.796 4.004-1.161 8.195-1.485 12.323-0.954s8.114 1.905 11.717 4.042c3.603 2.137 6.75 4.996 9.262 8.402 2.511 3.409 4.33 7.297 5.354 11.439s1.229 8.453 0.604 12.679c-0.625 4.223-2.070 8.278-4.244 11.919zM280.444 576c0 44.301 12.792 87.611 36.756 124.448 23.967 36.837 58.031 65.547 97.884 82.501s83.707 21.39 126.014 12.747c42.31-8.643 81.171-29.977 111.675-61.304 30.502-31.327 51.275-71.241 59.691-114.691 8.416-43.453 4.096-88.492-12.412-129.423s-44.463-75.913-80.33-100.527c-35.867-24.614-78.037-37.751-121.174-37.751-57.826 0.062-113.265 23.684-154.155 65.679s-63.887 98.932-63.949 158.321z" />
<glyph unicode="&#xe926;" glyph-name="play-1" horiz-adv-x="884" d="M884.364 448.009l-884.364-512v1024.002l884.364-512.002z" />
<glyph unicode="&#xe927;" glyph-name="right-arrow-1" horiz-adv-x="1252" d="M493.389 909.2l-34.985-130.566 522.263-139.939-957.828-553.003 68.272-118.249 957.829 553.003-139.941-522.26 130.566-34.987 199.913 746.088-746.089 199.914z" />
<glyph unicode="&#xe928;" glyph-name="code-editing" d="M304.767 546.218c-3.924-3.924-6.101-9.173-6.101-14.762s2.177-10.795 6.101-14.719l116.652-116.652-30.165-30.165-116.652 116.65c-11.989 11.991-18.602 27.947-18.602 44.886s6.613 32.897 18.602 44.927l118.528 118.487 30.165-30.165-118.528-118.487zM603.562 399.104l30.165-30.165 117.633 117.631c24.746 24.748 24.746 65.024 0 89.813l-119.509 119.511-30.165-30.165 119.509-119.511c8.149-8.106 8.149-21.332 0-29.481l-117.633-117.633zM1024 384c0-28.502-11.094-55.253-31.232-75.434l-372.566-372.566h-150.868v150.827l372.564 372.566c40.235 40.276 110.592 40.276 150.827 0 20.138-20.14 31.232-46.934 31.232-75.436l0.043 0.043zM981.334 384c0 17.066-6.656 33.151-18.731 45.269-24.15 24.15-66.347 24.15-90.497 0l-360.063-360.063v-90.497h90.538l360.065 360.065c12.075 12.075 18.729 28.16 18.729 45.269l-0.041-0.043zM414.165 234.666l-42.666 42.668h-243.499v512h768v-216.449c7.125 0.768 14.123 2.091 21.334 2.091 7.209 0 14.207-1.28 21.332-2.091v259.115h-853.333v-554.666h-85.333v-106.668c0-58.837 47.872-106.666 106.667-106.666h277.333v42.666h-277.333c-35.285 0-64 28.715-64 64v64h311.168l42.666-42.666h57.344l42.668 42.666h-82.348z" />
<glyph unicode="&#xe929;" glyph-name="star" horiz-adv-x="1084" d="M542.127 924.176l157.463-316.931 350.075-51.824-252.753-247.697 58.892-348.961-313.678 163.846-313.675-163.846 58.891 348.961-252.754 247.697 350.072 51.824 157.465 316.931z" />
<glyph unicode="&#xe92a;" glyph-name="paintbrush" d="M40.448 723.925c-26.069 26.069-40.448 60.842-40.448 97.791s14.379 71.723 40.448 97.792c52.011 52.267 143.36 52.309 195.627 0l218.368-218.367-30.167-30.167-218.368 218.412c-36.181 36.139-99.285 36.053-135.253 0-18.048-18.048-27.989-42.027-27.989-67.669s9.899-49.579 27.947-67.627l218.367-218.411-30.165-30.165-218.368 218.411zM765.995 389.63l-30.167-30.165 245.504-245.504v-135.296h-135.296l-245.504 245.504-30.165-30.165 258.005-258.007h195.627v195.627l-258.005 258.005zM468.139 212.905c6.185-61.739-14.295-125.653-61.483-172.843-78.677-78.677-349.952-98.645-380.629-100.693l-24.277-1.579 1.579 24.279c2.048 30.677 22.059 301.952 100.693 380.629 47.189 47.189 111.103 67.669 172.843 61.483l516.309 516.181c52.736 52.736 138.496 52.736 191.232 0s52.695-138.453 0-191.189l-516.265-516.267zM326.272 393.214c29.355-10.281 56.917-27.093 80.384-50.517 23.424-23.424 40.277-50.987 50.56-80.384l497.024 497.024c36.053 36.096 36.096 94.805 0 130.859s-94.848 36.096-130.901 0l-497.067-496.982zM376.491 312.533c-33.408 33.365-77.312 50.089-121.175 50.089-43.861 0-87.765-16.725-121.13-50.089-51.883-51.883-78.080-236.288-86.357-328.663 92.373 8.279 276.779 34.519 328.662 86.359 66.773 66.773 66.729 175.445 0 242.304z" />
<glyph unicode="&#xe92b;" glyph-name="dice" d="M42.743 404.907c0-0.171 0-0.214 0 0v0zM981.197 405.76c-3.584-43.393-21.974-93.099-53.718-127.018l-303.658-295.851c-29.142-30.079-68.864-46.848-111.445-46.89h-0.087c-42.538 0-82.303 16.811-111.872 47.231l-303.103 294.743c-32.213 34.346-50.816 84.053-54.528 127.573-2.219 45.61 11.307 91.904 41.003 130.602l308.054 367.062c29.696 36.096 73.599 56.789 120.405 56.789 46.933 0 90.838-20.736 120.534-56.917l306.815-366.251c29.91-39.041 43.564-85.462 41.516-131.072h0.085zM85.709 428.629l231.339 38.4 163.072 445.654c-21.504-6.315-40.791-18.901-55.34-36.651l-0.169-0.171-307.584-366.379c-18.475-24.149-28.885-52.224-31.317-80.854zM490.999 303.487l-163.669 122.027-239.403-39.722c5.461-28.289 18.731-55.425 39.808-77.909l302.805-294.4c16.811-17.281 37.674-28.46 60.458-32.768v322.772zM665.72 455.638l-153.431 420.864-153.983-420.864 153.983-114.817 153.431 114.817zM936.098 385.75l-239.402 39.722-163.030-121.985v-322.772c22.742 4.308 43.52 15.402 59.946 32.341l303.36 295.551c20.694 22.145 33.792 48.983 39.083 77.143h0.042zM938.189 428.629c-2.56 28.759-13.098 57.088-31.829 81.537l-306.39 365.653c-14.679 17.835-34.006 30.507-55.51 36.821l162.475-445.654 231.253-38.358zM981.197 405.76c0.127 0.512 0.214-1.921 0 0v0z" />
<glyph unicode="&#xe92c;" glyph-name="quite2" d="M789.088 467.602c-24.576 2.529-78.646 2.529-78.646 38.018 0 48.144 68.81 111.504 179.402 179.935 34.397 22.816 105.689 58.288 105.689 106.448 0 38.016-27.043 65.888-83.565 58.288-54.070-7.6-137.635-45.616-248.211-141.92-115.51-98.849-223.635-263.583-223.635-425.775 0-164.737 108.125-329.474 282.624-329.474 140.071 0 260.499 108.975 260.499 258.513-0.016 114.046-76.195 245.822-194.157 255.966zM443.625 538.872c-20.185 10.882-42.325 18.001-66.219 20.049-24.576 2.529-78.646 2.529-78.646 38.015 0 48.147 68.809 111.505 179.401 179.937 34.413 22.816 105.674 58.288 105.674 106.448 0 38.016-27.043 65.888-83.565 58.288-54.070-7.6-137.635-45.616-248.211-141.92-115.495-98.848-223.636-263.585-223.636-425.793 0-164.734 108.125-329.47 282.624-329.47 41.021 0 80.337 9.408 115.448 26.382-34.428 64.192-52.783 138.467-52.783 211.779 0.016 90.528 28.284 178.319 69.911 256.285z" />
<glyph unicode="&#xe92d;" glyph-name="settings" d="M639.986-64h-256v149.887c-44.489 15.741-85.698 39.549-121.558 70.231l-129.877-75.050-128 221.865 129.835 74.881c-8.529 46.401-8.529 93.971 0 140.373l-129.835 74.881 128 221.866 129.877-75.051c35.859 30.681 77.068 54.488 121.558 70.23v149.888h256v-149.888c44.491-15.741 85.698-39.548 121.558-70.23l129.877 75.051 128-221.866-129.834-74.881c8.529-46.401 8.529-93.971 0-140.373l129.834-74.881-128-221.865-129.877 75.008c-35.863-30.665-77.070-54.459-121.558-70.188v-149.887zM469.32 21.333h85.333v129.153l32.042 8.277c52.567 13.617 100.412 41.34 138.369 80.17l23.167 23.594 111.914-64.639 42.667 73.899-111.787 64.554 8.791 31.829c14.447 52.355 14.447 107.645 0 160l-8.791 31.831 111.787 64.554-42.667 73.897-111.914-64.81-23.167 23.425c-37.978 38.769-85.822 66.431-138.369 79.999l-32.042 8.448v129.152h-85.333v-129.152l-32.044-8.277c-52.565-13.617-100.41-41.34-138.367-80.17l-23.169-23.596-111.914 64.812-42.667-73.899 111.786-64.554-8.789-31.831c-14.449-52.355-14.449-107.644 0-159.998l8.789-31.831-111.786-64.554 42.667-73.899 111.914 64.641 23.169-23.594c37.976-38.771 85.82-66.431 138.367-80.001l32.044-8.277v-129.153zM511.986 277.333c-33.755 0-66.751 10.010-94.817 28.764-28.066 18.752-49.941 45.407-62.858 76.592-12.918 31.186-16.297 65.501-9.712 98.608 6.585 33.105 22.84 63.516 46.709 87.384s54.277 40.121 87.384 46.707c33.105 6.585 67.422 3.206 98.606-9.712 31.186-12.917 57.84-34.791 76.593-62.858s28.762-61.062 28.762-94.817c0-45.264-17.982-88.673-49.987-120.68-32.007-32.005-75.416-49.987-120.68-49.987zM511.986 533.333c-16.877 0-33.375-5.003-47.408-14.38s-24.971-22.705-31.43-38.298c-6.458-15.591-8.148-32.75-4.855-49.302 3.293-16.553 11.419-31.758 23.352-43.693 11.935-11.933 27.14-20.062 43.693-23.354s33.711-1.601 49.304 4.857c15.591 6.458 28.919 17.396 38.296 31.428 9.377 14.034 14.382 30.533 14.382 47.409 0 22.632-8.992 44.337-24.994 60.34s-37.708 24.993-60.34 24.993z" />
<glyph unicode="&#xe92e;" glyph-name="megaphone" d="M725.333 960c-11.316 0-22.169-4.495-30.17-12.497s-12.496-18.854-12.496-30.17c0-125.824-110.208-170.667-213.333-170.667h-298.667c-45.264 0-88.673-17.981-120.679-49.987s-49.987-75.415-49.987-120.679v-85.333c0.093-25.546 5.95-50.742 17.135-73.71s27.408-43.114 47.462-58.941l152.406-340.139c10.838-24.366 28.509-45.069 50.869-59.6 22.361-14.53 48.457-22.269 75.124-22.276 21.218 0.014 42.097 5.334 60.736 15.477 18.637 10.141 34.442 24.784 45.976 42.595 11.533 17.809 18.43 38.22 20.063 59.378 1.631 21.155-2.053 42.383-10.721 61.751l-93.867 204.8h104.15c103.126 0 213.333-44.842 213.333-170.667 0-11.316 4.495-22.169 12.496-30.17s18.854-12.496 30.17-12.496c11.316 0 22.169 4.495 30.17 12.496s12.496 18.854 12.496 30.17v768c0 11.316-4.495 22.168-12.496 30.17s-18.854 12.497-30.17 12.497zM381.312 80.256c2.826-6.383 4.013-13.369 3.458-20.327-0.557-6.958-2.842-13.666-6.647-19.519-3.805-5.851-9.011-10.66-15.144-13.991s-13.001-5.080-19.982-5.086c-10.181 0.007-20.139 2.97-28.668 8.53s-15.259 13.475-19.373 22.787l-119.808 267.35h96.17l109.996-239.744zM682.667 337.067c-60.959 46.967-136.433 71.119-213.333 68.267h-298.667c-22.632 0-44.337 8.99-60.34 24.993s-24.994 37.708-24.994 60.341v85.333c0 22.632 8.99 44.337 24.994 60.341s37.708 24.993 60.34 24.993h298.667c76.875-2.914 152.346 21.161 213.333 68.053v-392.32zM1019.733 300.715c-2.503-5.016-5.97-9.491-10.202-13.166s-9.148-6.482-14.465-8.257c-5.318-1.775-10.933-2.485-16.526-2.089-5.592 0.397-11.050 1.892-16.064 4.398l-85.333 42.667c-10.129 5.059-17.832 13.932-21.418 24.671-3.584 10.738-2.756 22.46 2.303 32.588 5.057 10.127 13.932 17.83 24.669 21.416 10.738 3.584 22.46 2.756 32.588-2.301l85.333-42.667c10.075-5.055 17.742-13.892 21.323-24.581s2.788-22.359-2.208-32.464v-0.214zM858.028 684.715c-2.508 5.014-4.003 10.474-4.398 16.066-0.397 5.591 0.313 11.207 2.089 16.524 1.775 5.318 4.579 10.233 8.257 14.465 3.676 4.234 8.149 7.7 13.166 10.202l85.333 42.668c10.127 5.058 21.849 5.886 32.587 2.301 10.739-3.585 19.612-11.288 24.671-21.417 5.059-10.127 5.885-21.849 2.301-32.587s-11.289-19.612-21.416-24.671l-85.333-42.667c-5.014-2.506-10.474-4.001-16.066-4.398-5.591-0.395-11.207 0.314-16.524 2.089s-10.233 4.581-14.465 8.257c-4.234 3.676-7.7 8.151-10.202 13.166zM853.333 533.333c0 11.316 4.495 22.169 12.496 30.17s18.854 12.496 30.17 12.496h85.333c11.316 0 22.169-4.495 30.17-12.496s12.496-18.854 12.496-30.17c0-11.316-4.495-22.169-12.496-30.17s-18.854-12.496-30.17-12.496h-85.333c-11.316 0-22.169 4.495-30.17 12.496s-12.496 18.854-12.496 30.17z" />
<glyph unicode="&#xe92f;" glyph-name="youtube" horiz-adv-x="1489" d="M1384.178 758.182c30.552-106.909 30.552-336 30.552-336s0-226.546-30.552-336c-15.267-61.094-63.637-106.913-122.182-122.18-109.447-28.002-542.178-28.002-542.178-28.002s-435.273 0-544.727 28.002c-58.546 15.267-106.909 61.086-122.182 122.18-30.545 109.454-30.545 336-30.545 336s0 229.090 30.545 336c15.273 61.091 63.636 109.455 122.182 124.727 109.454 30.545 544.727 30.545 544.727 30.545s432.731 0 542.178-30.545c58.545-15.273 106.915-63.636 122.182-124.727zM577.273 216l361.456 206.182-361.456 206.181v-412.364z" />
<glyph unicode="&#xe930;" glyph-name="linkedin" d="M147.887 908c-70.395 0-116.42-46.225-116.42-106.981 0-59.414 44.654-106.957 113.719-106.957h1.336c71.771 0 116.438 47.543 116.438 106.957-1.342 60.756-44.666 106.981-115.072 106.981zM43.667 609.533h205.793v-619.138h-205.793v619.138zM754.592 624.062c-111.017 0-185.46-104.32-185.46-104.32v89.789h-205.799v-619.136h205.787v345.75c0 18.51 1.341 36.99 6.779 50.227 14.877 36.961 48.733 75.252 105.586 75.252 74.465 0 104.25-56.777 104.25-140.010v-331.218h205.776v355.002c0 190.172-101.533 278.666-236.919 278.666z" />
<glyph unicode="&#xe931;" glyph-name="pinterest" horiz-adv-x="819" d="M442.533 895.733c175.466 0 336-121.333 336-306.133 0-173.6-89.6-367.733-287.467-367.733-48.534 0-106.4 24.269-130.666 67.2-41.067-168.003-39.2-194.135-132.534-322.934-9.333-3.734-7.466-3.734-13.067 3.734-3.733 35.465-7.466 69.065-7.466 104.53 0 113.869 52.266 280.003 78.4 390.136-14.933 29.867-18.667 63.467-18.667 95.2 0 149.333 175.466 171.733 175.466 48.534 0-72.8-50.4-141.867-50.4-212.8 0-46.666 41.066-80.267 87.734-80.267 128.8 0 167.999 184.8 167.999 283.733 0 132.533-93.333 205.333-222.133 205.333-147.467 0-261.334-106.4-261.334-255.733 0-72.8 44.8-110.133 44.8-126.934 0-14.933-11.2-65.333-29.867-65.333-44.8 0-117.6 74.667-117.6 205.333 0 207.2 188.534 334.134 380.8 334.134z" />
<glyph unicode="&#xe932;" glyph-name="twitter" horiz-adv-x="967" d="M575.562 526.406l360.027 433.594h-85.311l-312.615-376.484-249.683 376.484h-287.98l377.57-569.31-377.57-454.69h85.32l330.127 397.579 263.686-397.579h287.977l-391.549 590.406zM458.705 385.673l-342.642 507.784h131.046l603.209-893.94h-131.049l-260.564 386.156z" />
<glyph unicode="&#xe933;" glyph-name="facebook" horiz-adv-x="539" d="M346.809-64v467.063h157.455l23.623 182.074h-181.078v116.228c0 52.699 14.644 88.612 90.658 88.612l96.793 0.040v162.855c-16.739 2.165-74.198 7.129-141.074 7.129-139.649 0-235.254-84.837-235.254-240.603v-134.261h-157.933v-182.074h157.933v-467.063h188.877z" />
<glyph unicode="&#xe934;" glyph-name="health-care-law" horiz-adv-x="975" d="M801.812 750.912c0 110.268-89.732 201.905-200.002 201.905-42.969 0-83.12-18.387-114.286-51.478-31.168 33.091-71.318 51.478-114.286 51.478-110.269 0-200-91.636-200-201.905 0-110.91 81.389-168.164 175.642-234.486 38.867-27.343 79.074-55.636 119.922-91.072l18.693-16.238 18.722 16.208c46.178 39.96 90.097 71.234 128.824 98.83 93.164 66.32 166.771 118.72 166.771 226.757zM573.24 665.198h-57.144v-57.143h-57.144v57.143h-57.143v57.143h57.143v57.143h57.144v-57.143h57.144v-57.143zM940.861 691.484c-58.29 0-73.333-270.859-74.479-276.574-5.803-39.687-33.763-98.436-80.979-133.812l-123.753-89.854-34.265 45.758 123.758 89.824c49.020 36.757 71.363 99.513 10.094 99.513-54.872 0-157.442-63.527-187.85-88.732-36.308-30.096-57.29-74.811-57.29-121.973v-238.056h171.427c0 27.429 14.858 57.334 37.712 85.904 24.001 31.427 58.29 63.429 93.716 96.002 67.428 63.425 137.333 128.571 146.476 194.853 5.432 44.524 9.938 120.892 9.713 188.953-0.249 76.219-6.705 145.729-34.28 148.192zM394.93 342.913c-80.574 55.428-141.712 83.427-181.141 83.427-61.268 0-38.926-62.757 10.097-99.508l123.754-89.829-34.263-45.758-123.754 89.854c-47.219 35.377-75.177 94.125-80.981 133.812-1.144 5.72-16.19 276.575-74.478 276.575-32-2.857-35.429-96-33.712-185.143 1.145-65.144 6.286-128.569 9.141-152.004 9.145-66.282 79.050-131.428 146.478-194.853 35.428-32.573 69.712-64.571 93.715-96.002 22.855-28.57 37.712-58.475 37.712-85.904h171.428v236.919c0.004 50.478-23.693 98.026-63.996 128.414z" />
<glyph unicode="&#xe935;" glyph-name="ecommerce-law" d="M722.822 425.547l-17.585 301.022h-141.954v-135.17h-59.999v135.17h-231.076v-135.17h-59.997v135.17h-141.954l-31.529-539.724c-2.454-42.023 12.101-82.030 40.986-112.652s67.975-47.486 110.069-47.486h332.807c-19.417 37.813-30.385 80.648-30.385 125.995 0 136.873 99.903 250.837 230.617 272.845zM272.228 784.466c0 63.707 51.83 115.537 115.537 115.537 63.709 0 115.539-51.83 115.539-115.537v-57.895h59.999v57.895c0 96.79-78.746 175.534-175.537 175.534s-175.534-78.745-175.534-175.534v-57.895h59.997v57.895zM985.639 152.702c0 119.493-97.213 216.706-216.702 216.706-119.493 0-216.706-97.213-216.706-216.706 0-119.489 97.213-216.702 216.706-216.702 119.489 0 216.702 97.213 216.702 216.702zM736.492 46.568l-97.445 110.214 44.946 39.739 54.433-61.566 112.731 116.771 43.166-41.669-157.83-163.489z" />
<glyph unicode="&#xe937;" glyph-name="arrow-up" horiz-adv-x="829" d="M824.096 345.6l-71.68 71.68-286.72-286.72v829.44h-102.4v-829.44l-286.72 286.72-71.68-71.68 409.6-409.6 409.6 409.6z" />
<glyph unicode="&#xe938;" glyph-name="arrow-down" horiz-adv-x="829" d="M4.857 550.4l71.68-71.68 286.72 286.72v-829.44h102.4v829.44l286.72-286.72 71.68 71.68-409.6 409.6-409.6-409.6z" />
<glyph unicode="&#xe939;" glyph-name="double-quote" horiz-adv-x="1512" d="M0 490.728h366.636c-6.268-245.319-82.055-273.162-177.241-281.11l-36.706-4.179v-269.751l42.31 2.082c124.297 6.422 261.716 26.995 353.397 130.901 80.369 91.087 115.8 239.904 115.8 468.351v423.311h-664.196v-469.606zM847.428 960.333v-469.606h361.745c-6.271-245.319-79.609-273.162-174.792-281.11l-34.265-4.179v-269.751l39.868 2.082c124.299 6.422 262.944 26.995 354.626 130.901 80.36 91.087 117.014 239.904 117.014 468.351v423.311h-664.196z" />
<glyph unicode="&#xe93a;" glyph-name="calendar-two" d="M29.955 178.015h784.037c7.029 0 13.824 2.458 19.215 6.941 7.534 6.305 179.317 154.085 189.791 473.079h-842.040c-10.435-289.561-168.638-425.663-170.282-427.021-9.638-8.141-13.185-21.445-8.848-33.28 4.306-11.813 15.529-19.719 28.127-19.719zM994.033 838.033h-150.001v30.002c0 16.801-13.202 30.001-30.003 30.001s-30.003-13.2-30.003-30.001v-30.002h-152.005v30.002c0 16.801-13.2 30.001-30.001 30.001s-30.002-13.2-30.002-30.001v-30.002h-150.006v30.002c0 16.801-13.201 30.001-30.002 30.001s-30.001-13.2-30.001-30.001v-30.002h-150.006c-16.801 0-30.002-13.2-30.002-30.001v-90.004h842.037v90.004c0 16.801-13.202 30.001-30.003 30.001zM871.775 138.935c-16.289-13.568-36.74-20.955-57.746-20.955h-632.029v-90.002c0-16.581 13.419-30.003 30.002-30.003h782.032c16.589 0 30.003 13.422 30.003 30.003v336.309c-57.841-141.91-138.555-213.882-152.261-225.351z" />
<glyph unicode="&#xe93b;" glyph-name="advice-two" d="M309.914 305.584c-42.915-24.891-96.12-55.457-127.768-73.289l88.68-153.812 5.681 3.135c10.44 5.988 22.584 8.299 34.492 6.563 17.537-2.45 41.935-9.699 82.5-21.65 38.602-11.466 91.514-27.046 166.763-46.936 31.844-8.526 65.058-0.293 101.508 24.888 22.045 15.177 49.676 36.145 84.558 62.598 56.044 42.423 132.764 100.53 231.431 168.823 4.679 3.216 8.346 7.7 10.569 12.924s2.914 10.974 1.987 16.577c-0.924 5.603-3.426 10.825-7.212 15.058s-8.699 7.3-14.163 8.841c-3.357 1.034-6.975 0.827-10.191-0.588-11.071-4.606-26.356-10.289-45.756-17.44-40.663-14.992-101.998-37.72-182.050-71.919-0.293-0.095-0.685-0.195-0.98-0.295-35.959-48.018-48.501-48.601-53.399-48.801-111.799-5.381-212.521-14.992-232.901-20.382-1.385-0.302-2.796-0.466-4.215-0.49-4.040 0.007-7.938 1.485-10.969 4.155-3.031 2.672-4.986 6.354-5.503 10.359-0.514 4.008 0.446 8.065 2.701 11.415 2.255 3.352 5.654 5.769 9.56 6.797 25.376 6.563 131.196 16.069 236.722 21.165 5.776 4.508 20.67 20.478 38.6 45.463 0.67 0.885 1.095 1.929 1.234 3.031 0.137 1.1-0.017 2.219-0.451 3.24-0.363 1.065-1.014 2.011-1.877 2.738-0.863 0.724-1.907 1.202-3.021 1.378-24.496 4.996-106.016 15.577-355.084 37.625-9.306 0.783-24.986-1.665-41.445-11.171zM129.726 256.692l141.78-245.836-129.826-74.857-141.68 245.933 129.726 74.759zM1007.343 960h-698.999c-4.403 0.009-8.631-1.73-11.754-4.835-3.121-3.105-4.886-7.322-4.901-11.725v-434.439c-0.002-2.189 0.427-4.357 1.263-6.378s2.063-3.86 3.611-5.405c1.546-1.548 3.384-2.775 5.405-3.611s4.189-1.268 6.376-1.265h261.417l73.682-127.668c1.477-2.504 3.582-4.581 6.107-6.025s5.383-2.202 8.292-2.202c2.909 0 5.766 0.758 8.292 2.202s4.63 3.521 6.107 6.025l73.682 127.668h261.42c2.189-0.002 4.357 0.429 6.378 1.265s3.857 2.063 5.405 3.611c1.546 1.546 2.772 3.384 3.611 5.405 0.836 2.021 1.265 4.189 1.263 6.378v434.439c-0.017 4.404-1.78 8.621-4.903 11.725s-7.348 4.844-11.754 4.835zM502.345 585.123c-27.892 0.010-55.155 8.29-78.343 23.791-23.186 15.504-41.255 37.532-51.924 63.303-10.669 25.768-13.458 54.124-8.014 81.479 5.442 27.355 18.876 52.482 38.597 72.205s44.849 33.154 72.204 38.598c27.355 5.444 55.71 2.655 81.481-8.014s47.799-28.739 63.3-51.926c15.501-23.187 23.781-50.449 23.791-78.341-0.037-37.41-14.914-73.276-41.367-99.727-26.451-26.453-62.318-41.331-99.725-41.367zM502.345 833.996l0.002 0.004c-28.567-0.055-55.952-11.428-76.151-31.629-20.202-20.201-31.576-47.584-31.629-76.153 0-21.316 6.32-42.154 18.164-59.879 11.842-17.725 28.674-31.539 48.369-39.697s41.365-10.294 62.271-6.134c20.909 4.157 40.114 14.424 55.186 29.496 15.075 15.075 25.339 34.28 29.499 55.186 4.157 20.907 2.024 42.578-6.134 62.273s-21.972 36.527-39.697 48.37c-17.725 11.843-38.563 18.164-59.88 18.164zM430.721 724.944c-2.411 3.567-3.343 7.932-2.597 12.172s3.109 8.025 6.593 10.555c3.484 2.53 7.817 3.608 12.078 3.005 4.264-0.603 8.126-2.838 10.772-6.235l23.32-32.138 78.972 64.668c1.685 1.383 3.628 2.421 5.715 3.054s4.276 0.848 6.446 0.635c2.17-0.214 4.276-0.853 6.2-1.881s3.625-2.425 5.008-4.11c1.382-1.686 2.421-3.627 3.055-5.714 0.631-2.087 0.848-4.277 0.634-6.448s-0.853-4.277-1.882-6.2c-1.026-1.923-2.423-3.625-4.111-5.008l-92.599-75.835c-2.943-2.458-6.651-3.811-10.486-3.823-0.722 0.020-1.441 0.085-2.153 0.2-2.236 0.276-4.391 1.009-6.332 2.155-1.938 1.146-3.618 2.679-4.937 4.508l-33.697 46.439zM685.863 595.902c-0.002 2.175 0.424 4.33 1.256 6.339 0.831 2.011 2.050 3.838 3.589 5.376 1.538 1.536 3.365 2.757 5.376 3.589 2.009 0.829 4.164 1.256 6.339 1.253h235.254c4.406 0 8.631-1.748 11.744-4.864 3.113-3.113 4.864-7.339 4.864-11.742 0-4.406-1.751-8.628-4.864-11.744-3.113-3.113-7.339-4.864-11.744-4.864h-235.252c-2.182 0-4.342 0.432-6.359 1.27-2.014 0.839-3.845 2.068-5.383 3.616s-2.757 3.384-3.584 5.405c-0.827 2.019-1.243 4.184-1.231 6.366h-0.005zM685.863 682.713c-0.012 2.185 0.407 4.347 1.234 6.368 0.827 2.019 2.043 3.857 3.582 5.405s3.369 2.775 5.386 3.613c2.014 0.839 4.176 1.27 6.359 1.27h235.254c4.406 0 8.631-1.751 11.744-4.864 3.116-3.116 4.864-7.339 4.864-11.744s-1.748-8.628-4.864-11.744c-3.113-3.113-7.339-4.864-11.744-4.864h-235.252c-2.175-0.002-4.328 0.424-6.339 1.256s-3.838 2.050-5.376 3.589c-1.536 1.538-2.757 3.365-3.586 5.376-0.831 2.009-1.258 4.164-1.256 6.339h-0.005zM685.863 769.622c-0.012 2.183 0.407 4.347 1.234 6.367 0.824 2.020 2.043 3.858 3.582 5.406s3.369 2.777 5.383 3.615c2.016 0.838 4.176 1.27 6.361 1.27h235.254c4.406 0 8.631-1.75 11.744-4.864 3.116-3.115 4.864-7.339 4.864-11.744s-1.748-8.629-4.864-11.744c-3.113-3.114-7.339-4.864-11.744-4.864h-235.252c-2.177-0.011-4.335 0.41-6.349 1.238s-3.842 2.048-5.383 3.587c-1.538 1.54-2.757 3.369-3.586 5.383s-1.248 4.172-1.239 6.349h-0.005zM685.863 856.532c-0.010 4.404 1.729 8.631 4.835 11.754 3.104 3.123 7.322 4.887 11.725 4.904h235.254c4.42 0 8.655-1.755 11.781-4.879 3.123-3.124 4.879-7.361 4.879-11.779s-1.755-8.655-4.879-11.779c-3.126-3.124-7.361-4.879-11.781-4.879h-235.252c-2.182 0-4.342 0.432-6.359 1.27s-3.845 2.067-5.383 3.615c-1.538 1.548-2.757 3.385-3.584 5.406s-1.243 4.184-1.231 6.367h-0.005z" />
<glyph unicode="&#xe93c;" glyph-name="appoitment-date" d="M210 810v100c0 27.6 22.4 50 49.999 50 27.602 0 50.002-22.4 50.002-50v-100c0-27.6-22.4-50-50.002-50-27.599 0-49.999 22.4-49.999 50zM416.74 227.4l-12.239-71.36c-4.201-24.461 21.46-43.1 43.42-31.56l64.079 33.679 64.079-33.679c21.96-11.54 47.621 7.099 43.42 31.56l-12.239 71.36 51.84 50.54c17.759 17.321 7.959 47.48-16.581 51.062l-71.639 10.399-32.041 64.922c-10.98 22.239-42.698 22.239-53.678 0l-32.041-64.922-71.639-10.399c-24.54-3.561-34.36-33.741-16.581-51.062l51.84-50.54zM764.001 760c27.599 0 49.999 22.4 49.999 50v100c0 27.6-22.4 50-49.999 50-27.602 0-50.002-22.4-50.002-50v-100c0-27.6 22.4-50 50.002-50zM0 585.999h1024v-529.999c0-66.199-53.801-120-120-120h-784c-66.2 0-120 53.801-120 120v529.999zM262.001 270.999c0-138.079 111.918-249.999 249.999-249.999 138.079 0 249.999 111.921 249.999 249.999 0 138.081-111.921 250.002-249.999 250.002-138.081 0-249.999-111.921-249.999-250.002zM904 856h-70.001v-46c0-38.6-31.398-70-69.998-70-38.602 0-70.001 31.4-70.001 70v46h-364.001v-46c0-38.6-31.398-70-70.001-70-38.599 0-69.999 31.4-69.999 70v46h-70c-66.2 0-120-53.8-120-120v-129.999h1024v129.999c0 66.2-53.801 120-120 120z" />
<glyph unicode="&#xe93d;" glyph-name="fees" d="M1007.841 918.836c-0.47 15.711-13.087 28.336-28.789 28.812l-405.079 12.336c-8.267 0.234-16.219-2.93-22.023-8.797l-499.993-505.141c-61.274-61.907-61.274-162.626 0-224.533l236.431-238.859c29.773-30.086 69.39-46.657 111.539-46.657 42.156 0 81.773 16.571 111.546 46.657l500.002 505.149c5.719 5.782 8.821 13.657 8.579 21.789l-12.211 409.244zM623.339 291.061c-5.804-5.797-13.407-8.702-21.014-8.702-7.603 0-15.205 2.897-21.009 8.702l-12.922 12.93-21.389-21.389c-5.804-5.799-13.407-8.697-21.009-8.697-7.608 0-15.21 2.897-21.007 8.704-11.609 11.601-11.609 30.413 0 42.014l56.892 56.892c10.647 10.647 10.64 27.975-0.007 38.625-10.657 10.657-27.978 10.665-38.627 0.015l-14.491-14.483c0-0.007 0-0.007-0.007-0.007l-14.493-14.501c-16.906-16.906-39.117-25.36-61.32-25.36-22.218 0-44.429 8.454-61.343 25.375-16.384 16.384-25.408 38.158-25.415 61.33 0 20.068 6.773 39.092 19.234 54.467l-13.272 13.282c-11.601 11.601-11.601 30.415 0 42.016s30.413 11.601 42.014 0l12.93-12.93 13.547 13.554c11.604 11.601 30.415 11.601 42.024 0 11.601-11.609 11.601-30.423 0-42.024l-49.062-49.055c-5.157-5.155-7.992-12.008-7.992-19.304 0-7.298 2.845-14.156 8.007-19.321 10.657-10.657 27.985-10.657 38.625-0.015l14.501 14.498c0 0 0 0.007 0.007 0.007l14.486 14.493c33.819 33.812 88.843 33.804 122.663-0.015 31.627-31.617 33.68-81.775 6.181-115.797l13.272-13.282c11.601-11.609 11.601-30.423 0-42.024zM833.543 645.155c-17.376-17.376-40.203-26.062-63.023-26.062-22.83 0-45.658 8.687-63.033 26.062-16.836 16.836-26.11 39.219-26.11 63.031 0 23.806 9.273 46.189 26.11 63.025 34.751 34.75 91.306 34.758 126.057 0 34.756-34.75 34.756-91.305 0-126.056z" />
<glyph unicode="&#xe991;" glyph-name="podium" d="M742.831 792.372c-3.947 12.126-14.438 20.97-27.042 22.8l-119.966 17.436-53.67 108.724c-5.628 11.428-17.271 18.668-30.029 18.668s-24.405-7.24-30.029-18.668l-53.67-108.726-119.99-17.436c-12.606-1.832-23.096-10.674-27.042-22.8s-0.654-25.44 8.484-34.338l86.842-84.628-20.52-119.488c-2.16-12.572 3.010-25.276 13.326-32.768 10.338-7.522 24.012-8.448 35.286-2.551l107.322 56.418 107.298-56.418c11.533-6.050 25.152-4.804 35.285 2.551 10.313 7.492 15.484 20.194 13.325 32.756l-20.501 119.5 86.822 84.628c9.126 8.898 12.395 22.214 8.469 34.34zM645.978 449.626h-267.98c-18.5 0-33.498-14.997-33.498-33.498v-480.132h334.975v480.132c0 18.5-14.997 33.498-33.498 33.498zM43.040 315.644c-18.5 0-33.498-14.997-33.498-33.498v-319.654c0-14.63 11.858-26.487 26.484-26.487h241.498v379.639h-234.484zM980.983 181.645h-234.483v-245.649h241.498c14.626 0 26.483 11.857 26.483 26.483v185.668c0 18.5-14.997 33.498-33.498 33.498z" />
<glyph unicode="&#xe992;" glyph-name="collaboration" d="M1013.192 258.425l-97.024 97.029-200.709-200.709c-35.831-35.831-80.798-59.187-129.643-67.933l127.884-127.879c11.711-11.72 30.711-11.72 42.422 0l257.071 257.061c11.72 11.72 11.72 30.72 0 42.431zM876.665 400.784c33.82 33.811 33.829 88.837 0.047 122.672-0.037 0.039-0.079 0.078-0.116 0.117-8.36 8.352-18.125 14.789-28.76 19.094 9.221 23.321 11.166 62.758-19.372 93.305-0.079 0.078-0.158 0.164-0.242 0.242-8.322 8.266-18.022 14.641-28.588 18.922 9.221 23.304 11.171 62.75-19.349 93.281-0.023 0.023-0.042 0.039-0.056 0.054-8.369 8.367-18.139 14.821-28.788 19.125 9.216 23.32 11.162 62.766-19.377 93.312-0.009 0-0.009 0.008-0.014 0.008-0.009 0.008-0.019 0.016-0.023 0.023-33.839 33.836-88.883 33.836-122.722 0l-56.883-56.875 29.086-29.086c48.472-48.469 48.472-127.328 0.009-175.797-16.314-16.305-36.352-27.508-58.196-32.844-5.227-21.297-16.133-41.485-32.749-58.094-16.291-16.288-36.297-27.482-58.117-32.83-5.336-21.811-16.539-41.826-32.82-58.107-16.289-16.291-36.297-27.485-58.117-32.829-5.336-21.811-16.539-41.826-32.821-58.117-23.477-23.468-54.695-36.408-87.898-36.408s-64.422 12.93-87.899 36.417l-29.086 29.086-97.024-97.033c-11.719-11.72-11.719-30.711 0-42.431l257.063-257.061c11.719-11.72 30.711-11.711 42.43 0l184.014 184.008h51.847c49.45 0 95.944 19.265 130.914 54.225l203.608 203.618zM175.313 368.78c25.109-25.116 65.828-25.116 90.938 0 25.117 25.111 25.117 65.825 0 90.941 25.117-25.116 65.828-25.116 90.945 0 25.109 25.107 25.109 65.827 0 90.937 25.109-25.109 65.828-25.109 90.938 0 25.108 25.109 25.108 65.828 0 90.938 25.108-25.109 65.83-25.109 90.937 0 25.116 25.117 25.116 65.828 0 90.945l-128.218 128.219c-25.109 25.109-65.828 25.109-90.938 0s-25.109-65.828 0-90.938l16.062-16.070c-25.109 25.117-65.828 25.117-90.937 0-25.109-25.109-25.109-65.828 0-90.938l32.133-32.133c-25.109 25.109-65.828 25.109-90.938 0-25.117-25.109-25.117-65.828 0-90.938l32.133-32.141c-25.117 25.117-65.828 25.117-90.946 0-25.109-25.108-25.109-65.821 0-90.937l47.891-47.886zM566.886 903.361c4.436 4.437 9.132 8.515 14.015 12.305l-17.548 17.547c-9.123 9.133-23.087 11.391-34.625 5.625l-74.047-37.024 55.326-55.336 56.879 56.883z" />
<glyph unicode="&#xe993;" glyph-name="user" d="M512 940.308c-271.754 0-492.308-220.554-492.308-492.308s220.554-492.308 492.308-492.308c271.754 0 492.308 220.554 492.308 492.308s-220.554 492.308-492.308 492.308zM512 792.615c81.723 0 147.692-65.969 147.692-147.692s-65.969-147.692-147.692-147.692c-81.723 0-147.692 65.969-147.692 147.692s65.969 147.692 147.692 147.692zM512 93.538c-123.077 0-231.877 63.015-295.385 158.523 1.477 97.969 196.923 151.631 295.385 151.631 97.969 0 293.904-53.662 295.385-151.631-63.508-95.508-172.308-158.523-295.385-158.523z" />
<glyph unicode="&#xe994;" glyph-name="chcek-2" horiz-adv-x="1117" d="M22.727 409.388l347.034-415.215 666.368 794.981-95.67 112.665-570.698-680.726-252.691 301.754-94.344-113.458z" />
<glyph unicode="&#xe9f8;" glyph-name="neutral2" d="M512 960c-282.77 0-512-229.23-512-512s229.226-512 512-512c282.77 0 512 229.23 512 512s-229.23 512-512 512zM640 192h-256v64h256v-64zM704 704c35.346 0 64-28.654 64-64s-28.654-64-64-64-64 28.654-64 64c0 35.346 28.654 64 64 64zM320 704c35.346 0 64-28.654 64-64s-28.654-64-64-64-64 28.654-64 64c0 35.346 28.654 64 64 64z" />
<glyph unicode="&#xe9f9;" glyph-name="hipster" d="M512-64c282.77 0 512 229.23 512 512s-229.23 512-512 512-512-229.23-512-512 229.23-512 512-512zM512 864c229.75 0 416-186.25 416-416s-186.25-416-416-416-416 186.25-416 416 186.25 416 416 416zM256 640c0 35.346 28.654 64 64 64s64-28.654 64-64-28.654-64-64-64-64 28.654-64 64zM640 640c0 35.346 28.654 64 64 64s64-28.654 64-64-28.654-64-64-64-64 28.654-64 64zM675.882 419.882c-37.49 37.49-98.276 37.49-135.766 0s-37.49-98.276 0-135.766c1.204-1.204 2.434-2.368 3.684-3.492 86.528-78.512 288.2 1.842 288.2 103.376-62-40-110.45-9.786-156.118 35.882zM348.118 419.882c37.49 37.49 98.276 37.49 135.766 0s37.49-98.276 0-135.766c-1.204-1.204-2.434-2.368-3.684-3.492-86.528-78.512-288.2 1.842-288.2 103.376 62-40 110.45-9.786 156.118 35.882z" />
<glyph unicode="&#xea0a;" glyph-name="plus" d="M992 576h-352v352c0 17.672-14.328 32-32 32h-192c-17.672 0-32-14.328-32-32v-352h-352c-17.672 0-32-14.328-32-32v-192c0-17.672 14.328-32 32-32h352v-352c0-17.672 14.328-32 32-32h192c17.672 0 32 14.328 32 32v352h352c17.672 0 32 14.328 32 32v192c0 17.672-14.328 32-32 32z" />
<glyph unicode="&#xea0b;" glyph-name="minus" d="M0 544v-192c0-17.672 14.328-32 32-32h960c17.672 0 32 14.328 32 32v192c0 17.672-14.328 32-32 32h-960c-17.672 0-32-14.328-32-32z" />
</font>
</defs>
</svg>
